<?xml version="1.0" encoding="iso-8859-1"?>
<!-- Generator: Adobe Illustrator 27.8.1, SVG Export Plug-In . SVG Version: 6.00 Build 0)  -->
<svg version="1.1" xmlns="http://www.w3.org/2000/svg" xmlns:xlink="http://www.w3.org/1999/xlink" x="0px" y="0px"
	 viewBox="0 0 300 300" style="enable-background:new 0 0 300 300;" xml:space="preserve">
<g id="Laag_1">
	<circle style="fill:#5A7EAE;stroke:#6F1F46;stroke-width:1.9934;stroke-miterlimit:10;" cx="149.796" cy="150.984" r="102.9"/>
	<g>
		<path style="fill:#FDFBD2;" d="M152.439,49.749c55.511-1.27,100.778,47.832,99.609,102.518
			c-0.023,54.961-47.427,101.598-102.404,100.382c53.802-0.13,100.77-46.493,100.415-100.404
			C251.341,98.254,207.013,50.063,152.439,49.749L152.439,49.749z"/>
	</g>
	<path style="fill:#568C6D;stroke:#6F1F46;stroke-width:1.9934;stroke-miterlimit:10;" d="M219.85,220.441"/>
	<g>
		<path style="fill:none;" d="M119.724,99.718"/>
	</g>
</g>
<g id="island_small">
	<path style="fill:#568C6D;stroke:#6F1F46;stroke-width:1.9934;stroke-miterlimit:10;" d="M125.597,194.034
		c-1.194,0.916-1.946,2.165-2.412,3.582c-1.858,5.655,1.718,11.671,7.527,12.968c0.648,0.145,1.296,0.287,1.94,0.435
		c3.409,0.782,6.891,1.795,9.575,4.037c2.684,2.242,4.375,6.012,3.233,9.317c-0.925,2.675-3.549,4.834-3.381,7.66
		c0.181,3.053,3.465,4.842,6.366,5.812c9.609,3.213,31.461,7.746,37.172-4.212c2.284-4.784,0.122-10.502-2.762-14.949
		c-2.885-4.448-6.583-8.615-7.677-13.802c-1.204-5.706,0.972-11.506,2.766-17.054c1.794-5.549,3.187-11.809,0.593-17.031
		c-2.836-5.709-10.282-8.404-16.328-6.381s-10.277,8.17-10.642,14.535c-0.261,4.547,0.982,9.849-2.196,13.113
		c-2.893,2.972-7.75,2.366-11.783,1.398S128.882,191.502,125.597,194.034z"/>
	<g>
		<path style="fill:#FDFBD2;" d="M184.441,233.692c2.23-5.431-1.636-10.511-4.701-14.747c-3.296-4.438-7.33-9.097-7.725-14.967
			c-0.679-8.612,3.951-16.264,6.043-24.291c0.66-2.617,0.809-5.432-0.253-8.012c1.569,2.194,1.56,5.5,1.192,8.192
			c-1.337,7.99-5.696,15.872-5.016,23.929C174.475,214.115,189.973,223.007,184.441,233.692L184.441,233.692z"/>
	</g>
	<path style="fill:none;stroke:#6F1F46;stroke-width:1.9934;stroke-linecap:round;stroke-linejoin:round;stroke-miterlimit:10;" d="
		M151.36,203.983c-0.107-0.673,0.099-1.402,0.587-1.878c0.488-0.476,1.256-0.663,1.889-0.41s1.07,0.957,0.962,1.63
		c0.245-1.144,1.472-1.981,2.626-1.793s2.052,1.372,1.921,2.534"/>
	<path style="fill:none;stroke:#6F1F46;stroke-width:1.9934;stroke-linecap:round;stroke-linejoin:round;stroke-miterlimit:10;" d="
		M165.049,228.003c0.702,0.819,1.405,1.639,2.107,2.458"/>
	<path style="fill:none;stroke:#6F1F46;stroke-width:1.9934;stroke-linecap:round;stroke-linejoin:round;stroke-miterlimit:10;" d="
		M166.843,225.411c0.702,0.819,1.404,1.639,2.107,2.458"/>
</g>
<g id="smile">
	<path style="fill:none;stroke:#6F1F46;stroke-width:1.9934;stroke-linecap:round;stroke-linejoin:round;stroke-miterlimit:10;" d="
		M178.249,144.786c0.947,1.857,3.03,3.071,5.112,2.98c2.082-0.091,4.052-1.482,4.833-3.414"/>
</g>
<g id="Eyes">
	<circle style="fill:#FFFFFF;stroke:#6F1F46;stroke-width:1.5947;stroke-miterlimit:10;" cx="193.45" cy="126.354" r="12.781"/>
	<circle style="fill:#6F1F46;" cx="194.666" cy="130.602" r="7.894"/>
	<circle style="fill:#FFFFFF;" cx="195.147" cy="130.031" r="1.194"/>
	<circle style="fill:#FFFFFF;" cx="197.917" cy="133.869" r="1.858"/>
	<circle style="fill:#FFFFFF;" cx="193.325" cy="133.717" r="1.316"/>
	<path style="fill:#5A7EAE;stroke:#6F1F46;stroke-width:1.5947;stroke-miterlimit:10;" d="M206.212,126.176h-25.565
		c0.056-7.01,5.76-12.679,12.78-12.679C200.452,113.497,206.156,119.165,206.212,126.176z"/>
	<circle style="fill:#FFFFFF;stroke:#6F1F46;stroke-width:1.5947;stroke-miterlimit:10;" cx="172.398" cy="126.354" r="12.781"/>
	<circle style="fill:#6F1F46;" cx="172.945" cy="130.602" r="7.894"/>
	<circle style="fill:#FFFFFF;" cx="173.426" cy="130.031" r="1.194"/>
	<circle style="fill:#FFFFFF;" cx="176.196" cy="133.869" r="1.858"/>
	<circle style="fill:#FFFFFF;" cx="171.604" cy="133.717" r="1.316"/>
	<path style="fill:#5A7EAE;stroke:#6F1F46;stroke-width:1.5947;stroke-miterlimit:10;" d="M185.191,126.176h-25.565
		c0.056-7.01,5.76-12.679,12.78-12.679C179.431,113.497,185.135,119.165,185.191,126.176z"/>
</g>
<g id="big_island">
	<path style="fill:#568C6D;stroke:#6F1F46;stroke-width:1.9934;stroke-miterlimit:10;" d="M76.058,222.785
		c-40.185-40.185-40.185-105.337,0-145.522c8.979-8.979,19.696-16.692,31.636-21.013c7.206-2.608,15.357-4.018,22.43-1.068
		c7.073,2.95,12.139,11.535,9.037,18.543c-3.607,8.147-15.954,10.937-17.071,19.776c-0.575,4.548,2.239,8.725,4.323,12.808
		s3.344,9.524,0.227,12.886c-4.567,4.927-13.123,0.502-19.369,2.975c-6.467,2.561-7.771,11.191-6.747,18.071
		c1.4,9.406,5.19,18.259,8.079,27.32c2.888,9.061,4.89,18.808,2.607,28.04C107.546,210.412,91.194,224.713,76.058,222.785z"/>
	<path style="fill:none;stroke:#6F1F46;stroke-width:1.9934;stroke-linecap:round;stroke-linejoin:round;stroke-miterlimit:10;" d="
		M70.921,109.704c-0.107-0.673,0.099-1.402,0.587-1.878c0.488-0.476,1.256-0.663,1.889-0.41s1.07,0.957,0.962,1.63
		c0.245-1.144,1.472-1.981,2.626-1.793c1.154,0.188,2.052,1.372,1.921,2.534"/>
	<path style="fill:none;stroke:#6F1F46;stroke-width:1.9934;stroke-linecap:round;stroke-linejoin:round;stroke-miterlimit:10;" d="
		M107.142,86.643c-0.107-0.673,0.099-1.402,0.587-1.878c0.488-0.476,1.256-0.663,1.889-0.41c0.633,0.252,1.07,0.957,0.962,1.63
		c0.245-1.144,1.472-1.981,2.626-1.793c1.154,0.188,2.052,1.372,1.921,2.534"/>
	<path style="fill:none;stroke:#6F1F46;stroke-width:1.9934;stroke-linecap:round;stroke-linejoin:round;stroke-miterlimit:10;" d="
		M80.49,191.246c-0.107-0.673,0.099-1.402,0.587-1.878c0.488-0.476,1.256-0.663,1.889-0.41c0.633,0.252,1.07,0.957,0.962,1.63
		c0.245-1.144,1.472-1.981,2.626-1.793c1.154,0.188,2.052,1.372,1.921,2.534"/>
	<path style="fill:none;stroke:#6F1F46;stroke-width:1.9934;stroke-linecap:round;stroke-linejoin:round;stroke-miterlimit:10;" d="
		M72.059,149.891c0.702,0.819,1.405,1.639,2.107,2.458"/>
	<path style="fill:none;stroke:#6F1F46;stroke-width:1.9934;stroke-linecap:round;stroke-linejoin:round;stroke-miterlimit:10;" d="
		M73.853,147.299c0.702,0.819,1.405,1.639,2.107,2.458"/>
	<g>
		<path style="fill:#FDFBD2;" d="M76.463,221.676c15.356-0.956,28.437-13.144,32.021-27.83c1.459-7.356-0.027-15.09-1.643-22.364
			c-1.539-6.478-3.58-12.903-5.787-19.194c-3.427-9.655-6.439-27.248,6.423-31.734c-11.529,4.892-8.729,20.321-5.41,29.837
			c4.791,12.915,10.966,30.07,8.267,43.879C106.567,209.262,92.038,222.379,76.463,221.676L76.463,221.676z"/>
	</g>
</g>
<g id="island_right">
	<path style="fill:#568C6D;stroke:#6F1F46;stroke-width:1.9934;stroke-miterlimit:10;" d="M235.425,209.235
		c11.793-7.618,17.17-21.013,18.751-27.164c1.282-4.989,2.891-15.165,3.253-20.304c2.634-37.379-8.564-38.84-8.564-38.84
		c-1.285,16.709-18.252,15.778-26.238,14.392c-4.401-0.763-8.727,1.772-10.209,5.986c-2.292,6.52-0.226,15.504,2.192,22.453
		c3.84,11.034,2.691,23.244-3.449,33.183C205.966,207.349,206.698,227.793,235.425,209.235z"/>
	<g>
		<path style="fill:#FDFBD2;" d="M250.002,124.461c8.098,8.032,7.523,23.962,6.902,34.602c-0.843,11.976-3.076,24.118-8.808,34.808
			c-3.759,7.069-9.56,13.363-16.744,16.77c5.154-3.023,9.488-7.228,12.707-12.226c9.663-15.096,11.128-33.83,11.209-51.329
			C254.912,139.391,254.604,130.94,250.002,124.461L250.002,124.461z"/>
	</g>
	<path style="fill:none;stroke:#6F1F46;stroke-width:1.9934;stroke-linecap:round;stroke-linejoin:round;stroke-miterlimit:10;" d="
		M228.52,195.607c-0.107-0.673,0.099-1.402,0.587-1.878c0.488-0.476,1.256-0.663,1.889-0.41c0.633,0.252,1.07,0.957,0.962,1.63
		c0.245-1.144,1.472-1.981,2.626-1.793c1.154,0.188,2.052,1.372,1.921,2.534"/>
	<path style="fill:none;stroke:#6F1F46;stroke-width:1.9934;stroke-linecap:round;stroke-linejoin:round;stroke-miterlimit:10;" d="
		M228.572,161.722c0.122-0.989,1.146-1.772,2.132-1.63c0.986,0.142,1.748,1.181,1.587,2.164c-0.094-1.015,0.851-1.999,1.869-1.944
		c1.018,0.054,1.854,1.133,1.651,2.132c-0.029-0.812,0.74-1.562,1.551-1.511c0.811,0.051,1.481,0.89,1.351,1.692"/>
	<g>
		<g>
			<path style="fill:#6F1F46;" d="M49.803,217.345c-0.752-1.281-1.528-1.924-2.333-2.605c-0.591-0.504-0.479-1.148,0.138-1.58
				l3.855-2.793c0.616-0.432,1.353-0.355,1.776,0.207c2.76,3.553,1.948,7.979-3.038,9.666c-2.279,0.77-6.434,2.881-5.374,4.393
				c1.395,1.988,10.179-6.043,11.321-7.586c0.412-0.555,1.228-0.533,1.66,0.082l2.747,3.918c0.418,0.596,0.319,1.258-0.36,1.557
				c-4.54,2.029-8.517,4.818-11.97,8.396c-0.513,0.537-1.169,0.406-1.588-0.191l-5.146-7.336c-3.599-5.131,3.501-10.318,7.288-5.469
				C49.365,218.751,50.231,218.083,49.803,217.345z"/>
			<path style="fill:#6F1F46;" d="M43.561,206.382c-0.028-0.533-0.22-1.172-0.564-1.84c-0.744-1.447-2.142-2.994-3.801-3.725
				c-0.239-0.096-0.404-0.256-0.493-0.43c-0.122-0.236-0.071-0.51,0.296-0.697l3.93-2.021c2.289-1.178,4.891,2.234,5.757,3.918
				c2.389,4.643,0.802,9.254-4.013,11.732c-4.664,2.398-9.044,1.102-11.333-3.346c-1.788-3.477-1.277-6.305,1.378-7.672
				c2.591-1.332,5.554,0.338,7.687,4.484C42.737,207.433,43.591,207.13,43.561,206.382z M35.773,210.033
				c1.224,1.582,6.201,0.059,5.479-1.344C40.231,206.703,34.34,208.205,35.773,210.033z"/>
			<path style="fill:#6F1F46;" d="M33.406,189.208c-0.623-1.736,0.312-3.516,2.743-3.717c0.574-0.051,1.001,0.131,1.107,0.428
				c0.058,0.16,0.031,0.377-0.103,0.578c-0.512,0.803-0.536,1.74-0.258,2.518c0.221,0.617,0.648,1.162,1.178,1.488
				c1.315,0.791,2.971-0.061,3.861-1.102c0.472-0.557,1.104-0.447,1.35,0.238l1.729,4.822c0.246,0.688-0.032,1.277-0.759,1.408
				c-5.922,1.039-8.527,1.973-13.761,4.934c-0.622,0.352-1.203,0.096-1.48-0.605c-0.806-2.031-1.417-3.594-1.99-5.193
				c-0.574-1.6-1.102-3.217-1.763-5.275c-0.23-0.717,0.033-1.275,0.719-1.521l3.521-1.262c0.617-0.221,1.19,0.012,1.362,0.492
				c0.049,0.137,0.053,0.291,0.033,0.451c-0.157,1.219-0.051,2.521,0.31,3.527c0.131,0.365,0.308,0.715,0.506,0.979
				c1.313,1.723,3.987,0.402,3.586-0.717c-0.057-0.16-0.16-0.305-0.34-0.445C34.175,190.636,33.66,189.917,33.406,189.208z"/>
			<path style="fill:#6F1F46;" d="M38.248,175.691c0.61,0.07,1.062,0.445,1.178,0.992l0.948,4.49
				c0.146,0.689-0.276,1.275-0.943,1.291c-3.651,0.102-6.991,0.387-10.743,0.955c-3.799,0.58-5.674-1.01-6.582-5.311
				c-0.914-4.324,0.139-6.506,3.871-7.52c3.661-0.996,6.831-2.088,10.211-3.473c0.617-0.254,1.24,0.111,1.386,0.801l0.948,4.49
				c0.115,0.545-0.146,1.072-0.676,1.383c-1.083,0.627-3.251,0.115-4.508,0.631c-0.688,0.268-0.923,0.914-0.803,1.484
				s0.592,1.041,1.335,1.033C35.227,176.9,37.002,175.556,38.248,175.691z M26.875,178.367c2.531-0.236,3.856-1.014,3.641-2.035
				s-1.741-1.195-4.152-0.387c-1.832,0.609-2.369,1.119-2.238,1.738C24.254,178.3,24.953,178.55,26.875,178.367z"/>
			<path style="fill:#6F1F46;" d="M30.332,166.703c-0.388,0.027-0.545-0.131-0.563-0.398c-0.014-0.193,0.044-0.416,0.147-0.666
				c0.691-1.582,1.042-4.553,0.764-6.432c-0.145-1.012-1.234-0.934-1.211,0.086c0.098,4.496-0.863,7.775-4.302,8.02
				c-3.342,0.234-5.213-2.141-5.578-7.322c-0.328-4.648,1.028-7.154,3.789-7.35c1.646-0.115,3.049,1.488,3.184,3.742
				c0.142,2.352-1.123,3.391-2.747,2.799c-1.248-0.447-2.229-0.207-2.176,0.543c0.056,0.799,1.429,1.285,3.317,1.152
				c1.453-0.102,2.501-1.125,2.547-2.539l0.044-1.439c0.1-3.074,1.376-4.648,4.016-4.834c3.923-0.277,5.325,4.076,5.597,7.928
				c0.139,1.961-0.025,3.773-0.271,4.789c-0.267,1.041-1.06,1.535-1.979,1.6L30.332,166.703z"/>
			<path style="fill:#6F1F46;" d="M28.654,142.802c-0.043,0.654,0.372,1.364,1.313,1.476c1.811,0.218,3.111-0.304,5.57-0.31
				c0.729,0,1.164,0.418,1.116,1.146l-0.315,4.725c-0.049,0.727-0.54,1.156-1.259,0.987c-5.845-1.413-8.606-1.597-14.587-0.974
				c-0.735,0.072-1.165-0.419-1.116-1.146l0.315-4.726c0.049-0.727,0.531-1.035,1.259-0.986c1.598,0.131,2.658,0.64,3.912,0.82
				c1.084,0.17,1.688-0.495,1.731-1.149c0.046-0.679-0.468-1.37-1.563-1.37c-1.267,0.013-2.386,0.376-3.986,0.293
				c-0.728-0.048-1.165-0.418-1.116-1.145l0.315-4.726c0.048-0.727,0.539-1.156,1.258-0.986c5.845,1.412,8.607,1.597,14.588,0.974
				c0.734-0.073,1.164,0.418,1.115,1.145l-0.314,4.726c-0.049,0.727-0.535,1.084-1.259,0.987c-2.437-0.333-3.657-0.999-5.479-1.048
				C29.204,141.5,28.7,142.124,28.654,142.802z"/>
			<path style="fill:#6F1F46;" d="M37.673,127.556c0.738,0.008,1.112,0.542,0.985,1.26l-0.824,4.662
				c-0.126,0.718-0.661,1.092-1.357,0.845c-5.656-2.035-8.382-2.517-14.394-2.544c-0.738-0.007-1.112-0.542-0.986-1.259l0.824-4.663
				c0.127-0.717,0.662-1.091,1.358-0.845C28.936,127.047,31.662,127.529,37.673,127.556z"/>
			<path style="fill:#6F1F46;" d="M24.704,113.622c3.172-10.712,19.917-5.676,16.627,5.431
				C38.158,129.765,21.414,124.729,24.704,113.622z M38.567,120.261c0.793-2.678-10.176-10.967-11.1-7.847
				C26.674,115.092,37.642,123.381,38.567,120.261z"/>
			<path style="fill:#6F1F46;" d="M33.322,92.453c1.042-2.167,3.588-2.851,5.631-1.546c3.324,2.12,5.858,3.12,10.496,4.381
				c0.712,0.199,0.934,0.812,0.625,1.473l-2.009,4.287c-0.309,0.66-0.86,0.75-1.53,0.463c-2.372-1.004-3.847-2.606-6.344-3.803
				c-1.242-0.608-2.251-0.116-2.611,0.653s-0.094,1.86,1.159,2.447c2.529,1.185,4.714,1.27,6.981,2.439
				c0.649,0.331,0.934,0.812,0.625,1.472l-2.009,4.288c-0.309,0.659-0.923,0.882-1.53,0.463c-4.933-3.437-7.439-4.611-13.237-6.201
				c-0.711-0.198-0.933-0.812-0.624-1.472l1.556-3.32c0.659-1.407,1.618-1.279,4.022,0.57c0.354,0.273,0.655,0.146,0.769-0.096
				c0.083-0.176,0.055-0.403-0.178-0.593C32.93,96.667,32.291,94.598,33.322,92.453z"/>
			<path style="fill:#6F1F46;" d="M56.152,75.949c0.994-1.104,1.371-2.037,1.777-3.01c0.302-0.717,0.948-0.804,1.547-0.347
				l3.827,2.828c0.599,0.456,0.748,1.181,0.34,1.755c-2.55,3.704-7.012,4.27-10.129,0.029c-1.421-1.939-4.691-5.258-5.811-3.791
				c-1.472,1.93,8.837,7.87,10.652,8.492c0.653,0.224,0.88,1.007,0.424,1.605l-2.9,3.803c-0.442,0.579-1.104,0.686-1.594,0.128
				c-3.306-3.713-7.166-6.657-11.62-8.864c-0.668-0.326-0.74-0.992-0.298-1.571l5.433-7.122c3.8-4.98,10.89,0.215,7.416,5.29
				C54.68,75.957,55.579,76.581,56.152,75.949z"/>
			<path style="fill:#6F1F46;" d="M64.696,66.669c0.498-0.188,1.049-0.565,1.582-1.098c1.151-1.148,2.202-2.951,2.394-4.754
				c0.017-0.258,0.12-0.463,0.258-0.601c0.189-0.188,0.464-0.223,0.756,0.069l3.121,3.13c1.818,1.823-0.643,5.341-1.983,6.679
				c-3.697,3.687-8.575,3.577-12.399-0.258c-3.704-3.714-3.802-8.282-0.259-11.815c2.769-2.762,5.62-3.136,7.729-1.021
				c2.058,2.063,1.366,5.395-1.936,8.688C63.443,66.203,63.992,66.925,64.696,66.669z M58.848,60.358
				c-1.136,1.646,1.83,5.927,2.947,4.812C63.377,63.593,60.156,58.437,58.848,60.358z"/>
			<path style="fill:#6F1F46;" d="M77.938,51.784c1.463-1.123,3.443-0.776,4.377,1.476c0.225,0.531,0.182,0.993-0.069,1.186
				c-0.135,0.104-0.348,0.145-0.582,0.08c-0.92-0.242-1.82,0.021-2.475,0.522c-0.521,0.399-0.907,0.972-1.056,1.576
				c-0.353,1.494,0.964,2.811,2.228,3.34c0.674,0.278,0.763,0.914,0.186,1.357l-4.063,3.12c-0.577,0.443-1.225,0.358-1.571-0.293
				c-2.799-5.32-4.484-7.516-8.901-11.593c-0.525-0.484-0.459-1.116,0.123-1.594c1.688-1.389,2.987-2.447,4.336-3.482
				c1.348-1.035,2.726-2.031,4.483-3.29c0.611-0.438,1.225-0.358,1.668,0.22l2.277,2.965c0.399,0.521,0.353,1.138-0.052,1.448
				c-0.115,0.088-0.261,0.139-0.421,0.17c-1.206,0.222-2.415,0.722-3.262,1.372c-0.309,0.236-0.587,0.512-0.778,0.78
				c-1.237,1.777,0.836,3.92,1.779,3.195c0.135-0.104,0.24-0.246,0.32-0.46C76.815,52.953,77.34,52.243,77.938,51.784z"/>
			<path style="fill:#6F1F46;" d="M92.285,52.258c0.121,0.603-0.099,1.147-0.583,1.426l-3.982,2.281
				c-0.611,0.35-1.298,0.128-1.519-0.502c-1.218-3.444-2.513-6.536-4.206-9.933c-1.718-3.438-0.78-5.71,3.034-7.895
				c3.835-2.196,6.236-1.865,8.345,1.377c2.072,3.179,4.084,5.86,6.439,8.653c0.432,0.509,0.275,1.214-0.336,1.563l-3.982,2.281
				c-0.484,0.277-1.066,0.19-1.524-0.219c-0.929-0.839-1.108-3.059-1.982-4.097c-0.468-0.572-1.154-0.599-1.66-0.309
				c-0.506,0.289-0.81,0.883-0.574,1.588C90.207,49.754,92.031,51.032,92.285,52.258z M86.248,42.255
				c1.002,2.337,2.147,3.359,3.054,2.841c0.906-0.52,0.604-2.025-0.904-4.072c-1.144-1.556-1.794-1.91-2.342-1.597
				C85.506,39.74,85.484,40.481,86.248,42.255z"/>
			<path style="fill:#6F1F46;" d="M98.433,41.959c-0.145-0.36-0.041-0.559,0.206-0.658c0.181-0.072,0.411-0.086,0.682-0.063
				c1.718,0.174,4.652-0.4,6.356-1.24c0.919-0.447,0.513-1.461-0.452-1.127c-4.251,1.469-7.668,1.557-8.951-1.644
				c-1.246-3.11,0.442-5.618,5.266-7.552c4.327-1.734,7.128-1.209,8.157,1.36c0.614,1.533-0.484,3.359-2.59,4.177
				c-2.195,0.854-3.57-0.033-3.504-1.76c0.044-1.326-0.484-2.187-1.183-1.906c-0.744,0.298-0.788,1.754-0.083,3.512
				c0.542,1.353,1.836,2.037,3.197,1.648l1.384-0.397c2.957-0.846,4.847-0.112,5.832,2.345c1.463,3.65-2.255,6.318-5.838,7.754
				c-1.826,0.732-3.603,1.13-4.644,1.207c-1.073,0.064-1.786-0.539-2.129-1.396L98.433,41.959z"/>
			<path style="fill:#6F1F46;" d="M120.693,33.077c-0.637,0.156-1.187,0.767-1.008,1.697c0.341,1.792,1.231,2.872,1.982,5.213
				c0.222,0.695-0.046,1.236-0.753,1.41l-4.598,1.131c-0.707,0.174-1.265-0.164-1.321-0.9c-0.424-5.995-1.085-8.683-3.49-14.191
				c-0.292-0.679,0.046-1.236,0.753-1.41l4.598-1.131c0.707-0.174,1.147,0.192,1.321,0.899c0.359,1.562,0.195,2.728,0.402,3.977
				c0.167,1.084,0.984,1.458,1.62,1.302c0.66-0.163,1.164-0.861,0.832-1.905c-0.396-1.202-1.081-2.159-1.487-3.709
				c-0.174-0.707,0.046-1.236,0.753-1.41l4.598-1.131c0.707-0.174,1.265,0.164,1.321,0.9c0.425,5.995,1.085,8.683,3.49,14.191
				c0.292,0.679-0.046,1.236-0.753,1.41l-4.598,1.131c-0.707,0.174-1.194-0.181-1.321-0.899c-0.42-2.422-0.156-3.787-0.661-5.538
				C122.1,33.206,121.353,32.914,120.693,33.077z"/>
			<path style="fill:#6F1F46;" d="M137.96,37.06c0.217,0.706-0.18,1.225-0.902,1.321l-4.695,0.625
				c-0.722,0.096-1.24-0.301-1.216-1.039c0.229-6.01-0.137-8.755-1.93-14.495c-0.216-0.707,0.181-1.225,0.902-1.321l4.695-0.625
				c0.723-0.096,1.241,0.301,1.217,1.039C135.802,28.574,136.167,31.319,137.96,37.06z"/>
			<path style="fill:#6F1F46;" d="M147.309,20.477c11.167-0.231,11.457,17.25-0.123,17.49
				C136.018,38.198,135.729,20.717,147.309,20.477z M145.196,35.7c2.792-0.058,7.356-13.024,4.103-12.957
				C146.507,22.801,141.943,35.768,145.196,35.7z"/>
			<path style="fill:#6F1F46;" d="M170.051,22.208c2.382,0.327,3.814,2.542,3.197,4.888c-1,3.814-1.175,6.534-0.953,11.337
				c0.028,0.738-0.488,1.138-1.211,1.046l-4.698-0.599c-0.723-0.092-0.978-0.59-0.909-1.315c0.229-2.566,1.302-4.462,1.676-7.205
				c0.199-1.37-0.579-2.18-1.423-2.287c-0.843-0.107-1.8,0.481-1.975,1.854c-0.353,2.771,0.236,4.878-0.183,7.396
				c-0.115,0.72-0.487,1.138-1.21,1.046l-4.698-0.599c-0.723-0.092-1.122-0.607-0.91-1.315c1.761-5.75,2.11-8.496,1.847-14.504
				c-0.028-0.738,0.487-1.138,1.21-1.046l3.639,0.463c1.542,0.196,1.715,1.148,0.689,4.006c-0.151,0.421,0.062,0.669,0.327,0.702
				c0.192,0.024,0.4-0.071,0.51-0.352C165.918,23.126,167.693,21.883,170.051,22.208z"/>
			<path style="fill:#6F1F46;" d="M192.765,38.9c1.355,0.61,2.36,0.684,3.411,0.773c0.774,0.069,1.055,0.658,0.803,1.368
				l-1.525,4.511c-0.252,0.709-0.897,1.073-1.569,0.86c-4.307-1.299-6.209-5.378-3.121-9.643c1.413-1.946,3.577-6.075,1.837-6.693
				c-2.288-0.813-4.799,10.822-4.837,12.742c-0.014,0.691-0.691,1.146-1.4,0.895l-4.509-1.602c-0.687-0.244-0.99-0.842-0.608-1.479
				c2.527-4.283,4.153-8.861,4.896-13.779c0.106-0.735,0.719-1.008,1.405-0.764l8.446,3.001c5.905,2.099,3.121,10.441-2.775,8.681
				C192.308,37.5,191.988,38.547,192.765,38.9z"/>
			<path style="fill:#6F1F46;" d="M204.187,44.214c0.331,0.417,0.857,0.827,1.525,1.173c1.444,0.748,3.479,1.201,5.256,0.836
				c0.25-0.062,0.478-0.026,0.65,0.063c0.237,0.123,0.353,0.374,0.163,0.741l-2.033,3.924c-1.184,2.285-5.281,1.01-6.963,0.139
				c-4.636-2.401-6.014-7.08-3.522-11.888c2.413-4.657,6.734-6.138,11.176-3.837c3.472,1.799,4.694,4.4,3.32,7.053
				c-1.341,2.587-4.723,2.94-8.862,0.796C204.25,42.879,203.729,43.621,204.187,44.214z M208.421,36.727
				c-1.914-0.581-5.09,3.544-3.688,4.27C206.716,42.023,210.649,37.389,208.421,36.727z"/>
			<path style="fill:#6F1F46;" d="M222.389,52.314c1.515,1.055,1.784,3.047-0.079,4.619c-0.438,0.375-0.892,0.474-1.15,0.293
				c-0.14-0.097-0.244-0.287-0.253-0.53c-0.048-0.95-0.571-1.729-1.249-2.2c-0.538-0.375-1.2-0.569-1.821-0.528
				c-1.531,0.117-2.386,1.771-2.508,3.136c-0.062,0.727-0.64,1.004-1.237,0.588l-4.205-2.927c-0.598-0.416-0.713-1.058-0.197-1.587
				c4.222-4.279,5.803-6.551,8.351-11.996c0.302-0.647,0.925-0.776,1.556-0.366c1.836,1.188,3.238,2.105,4.633,3.076
				c1.396,0.972,2.763,1.982,4.494,3.276c0.604,0.45,0.714,1.059,0.297,1.656l-2.136,3.068c-0.374,0.538-0.977,0.682-1.396,0.39
				c-0.119-0.083-0.211-0.206-0.289-0.349c-0.578-1.083-1.42-2.083-2.297-2.693c-0.318-0.222-0.665-0.404-0.979-0.505
				c-2.068-0.641-3.481,1.984-2.505,2.664c0.139,0.098,0.307,0.154,0.535,0.166C220.935,51.599,221.772,51.885,222.389,52.314z"/>
			<path style="fill:#6F1F46;" d="M226.302,66.144c-0.537,0.298-1.123,0.254-1.534-0.124l-3.38-3.103
				c-0.52-0.477-0.516-1.198,0.018-1.599c2.912-2.204,5.466-4.375,8.188-7.017c2.756-2.678,5.204-2.473,8.441,0.499
				c3.254,2.988,3.666,5.376,1.216,8.367c-2.4,2.938-4.346,5.666-6.293,8.757c-0.354,0.564-1.072,0.63-1.591,0.153l-3.38-3.103
				c-0.411-0.378-0.505-0.958-0.254-1.519c0.519-1.139,2.578-1.983,3.303-3.131c0.403-0.619,0.22-1.281-0.209-1.675
				c-0.43-0.395-1.087-0.504-1.687-0.065C228.058,63.405,227.393,65.529,226.302,66.144z M234.002,57.361
				c-1.922,1.662-2.549,3.063-1.78,3.77s2.111-0.038,3.604-2.096c1.137-1.561,1.277-2.288,0.812-2.715
				C236.173,55.894,235.46,56.096,234.002,57.361z"/>
			<path style="fill:#6F1F46;" d="M237.974,68.866c0.299-0.248,0.52-0.21,0.689-0.004c0.124,0.149,0.207,0.364,0.269,0.629
				c0.357,1.689,1.799,4.309,3.118,5.675c0.706,0.739,1.548,0.043,0.936-0.773c-2.694-3.601-3.82-6.828-1.163-9.024
				c2.581-2.136,5.484-1.292,8.796,2.712c2.971,3.592,3.323,6.418,1.19,8.182c-1.271,1.053-3.347,0.563-4.767-1.192
				c-1.482-1.83-1.057-3.41,0.608-3.874c1.275-0.361,1.935-1.127,1.454-1.707c-0.51-0.617-1.91-0.215-3.369,0.991
				c-1.123,0.929-1.38,2.37-0.595,3.548l0.801,1.196c1.706,2.559,1.584,4.582-0.455,6.269c-3.031,2.506-6.704-0.221-9.164-3.195
				c-1.254-1.516-2.174-3.086-2.565-4.054c-0.388-1.002-0.03-1.865,0.681-2.453L237.974,68.866z"/>
			<path style="fill:#6F1F46;" d="M253.22,87.334c-0.345-0.559-1.094-0.895-1.926-0.439c-1.602,0.873-2.358,2.053-4.357,3.484
				c-0.595,0.423-1.191,0.334-1.573-0.286l-2.485-4.031c-0.382-0.62-0.231-1.256,0.453-1.534c5.58-2.24,7.937-3.693,12.446-7.67
				c0.557-0.486,1.191-0.335,1.574,0.285l2.484,4.031c0.382,0.621,0.168,1.152-0.452,1.534c-1.378,0.82-2.537,1.021-3.664,1.602
				c-0.98,0.49-1.087,1.383-0.743,1.941c0.357,0.579,1.177,0.845,2.068,0.209c1.024-0.745,1.726-1.69,3.077-2.553
				c0.62-0.382,1.191-0.335,1.574,0.286l2.484,4.031c0.382,0.62,0.231,1.255-0.452,1.534c-5.58,2.24-7.938,3.692-12.447,7.67
				c-0.557,0.485-1.191,0.335-1.573-0.285l-2.485-4.032c-0.382-0.62-0.192-1.192,0.453-1.533c2.178-1.143,3.559-1.309,5.07-2.326
				C253.528,88.713,253.577,87.913,253.22,87.334z"/>
			<path style="fill:#6F1F46;" d="M254.723,105.001c-0.605,0.422-1.221,0.203-1.533-0.454l-2.032-4.276
				c-0.312-0.657-0.094-1.272,0.616-1.476c5.787-1.622,8.287-2.81,13.199-6.273c0.606-0.422,1.221-0.204,1.533,0.454l2.032,4.275
				c0.312,0.658,0.095,1.272-0.615,1.476C262.135,100.349,259.635,101.537,254.723,105.001z"/>
			<path style="fill:#6F1F46;" d="M273.367,108.822c3.629,10.563-12.93,16.175-16.692,5.221
				C253.045,103.479,269.604,97.868,273.367,108.822z M258.225,111.456c0.907,2.641,14.648,3.03,13.591-0.047
				C270.909,108.768,257.167,108.379,258.225,111.456z"/>
			<path style="fill:#6F1F46;" d="M278.626,131.061c0.408,2.369-1.271,4.404-3.692,4.525c-3.938,0.201-6.585,0.857-11.096,2.521
				c-0.695,0.251-1.232-0.12-1.363-0.837l-0.851-4.66c-0.131-0.717,0.267-1.11,0.979-1.265c2.516-0.559,4.647-0.108,7.376-0.582
				c1.366-0.225,1.902-1.212,1.749-2.048c-0.152-0.836-1.003-1.57-2.364-1.321c-2.748,0.502-4.579,1.7-7.105,2.063
				c-0.721,0.106-1.231-0.121-1.362-0.838l-0.852-4.66c-0.131-0.717,0.24-1.253,0.979-1.265c6.014-0.062,8.737-0.559,14.385-2.627
				c0.694-0.251,1.231,0.12,1.362,0.837l0.659,3.608c0.279,1.529-0.576,1.982-3.609,1.869c-0.447-0.017-0.619,0.262-0.571,0.524
				c0.035,0.191,0.189,0.36,0.489,0.38C276.5,127.398,278.222,128.714,278.626,131.061z"/>
			<path style="fill:#6F1F46;" d="M269.612,157.761c-0.168,1.477,0.068,2.457,0.304,3.484c0.17,0.758-0.306,1.205-1.059,1.182
				l-4.76-0.076c-0.753-0.023-1.296-0.527-1.298-1.232c-0.078-4.498,3.226-7.553,8.229-5.914c2.284,0.752,6.877,1.553,6.935-0.291
				c0.076-2.428-11.771-1.27-13.61-0.721c-0.662,0.199-1.303-0.307-1.278-1.061l0.149-4.782c0.023-0.729,0.5-1.2,1.224-1.031
				c4.85,1.101,9.705,1.253,14.614,0.459c0.733-0.122,1.179,0.378,1.156,1.105l-0.281,8.959c-0.197,6.262-8.99,6.156-9.113,0.004
				C270.805,156.9,269.711,156.914,269.612,157.761z"/>
			<path style="fill:#6F1F46;" d="M268.052,170.248c-0.296,0.443-0.524,1.07-0.649,1.811c-0.271,1.605-0.078,3.682,0.813,5.258
				c0.136,0.221,0.171,0.447,0.139,0.641c-0.044,0.262-0.248,0.449-0.655,0.381l-4.356-0.732c-2.538-0.428-2.579-4.719-2.266-6.586
				c0.866-5.146,4.897-7.891,10.236-6.992c5.172,0.869,7.904,4.531,7.074,9.463c-0.648,3.854-2.751,5.814-5.695,5.318
				c-2.873-0.482-4.245-3.594-3.472-8.191C269.341,169.898,268.476,169.63,268.052,170.248z M276.475,171.986
				c-0.033-2-4.932-3.76-5.193-2.203C270.911,171.984,276.527,174.308,276.475,171.986z"/>
			<path style="fill:#6F1F46;" d="M265.916,190.085c-0.541,1.766-2.355,2.633-4.424,1.338c-0.491-0.303-0.724-0.703-0.632-1.006
				c0.05-0.162,0.2-0.32,0.429-0.402c0.891-0.336,1.472-1.074,1.713-1.863c0.192-0.627,0.175-1.318-0.054-1.896
				c-0.581-1.422-2.417-1.73-3.754-1.428c-0.711,0.162-1.152-0.303-0.939-1l1.501-4.9c0.213-0.695,0.789-1.002,1.45-0.672
				c5.368,2.709,8.016,3.52,13.981,4.279c0.709,0.09,1.022,0.645,0.825,1.371c-0.57,2.111-1.015,3.729-1.513,5.354
				s-1.042,3.236-1.744,5.283c-0.244,0.713-0.79,1.002-1.486,0.789l-3.577-1.096c-0.627-0.191-0.947-0.721-0.798-1.209
				c0.043-0.139,0.132-0.264,0.244-0.383c0.854-0.881,1.549-1.988,1.862-3.012c0.113-0.371,0.181-0.756,0.181-1.088
				c-0.023-2.166-2.956-2.707-3.305-1.57c-0.05,0.164-0.053,0.34,0.007,0.562C266.152,188.482,266.135,189.365,265.916,190.085z"/>
			<path style="fill:#6F1F46;" d="M253.944,197.996c-0.447-0.42-0.584-0.992-0.35-1.498l1.927-4.164
				c0.295-0.641,0.984-0.855,1.528-0.471c2.985,2.104,5.831,3.875,9.176,5.662c3.39,1.809,3.94,4.203,2.096,8.191
				c-1.855,4.01-4.004,5.129-7.6,3.707c-3.528-1.391-6.721-2.414-10.257-3.326c-0.646-0.166-0.927-0.83-0.631-1.471l1.926-4.164
				c0.234-0.506,0.759-0.771,1.369-0.703c1.243,0.146,2.674,1.852,3.988,2.191c0.712,0.195,1.287-0.18,1.531-0.709
				c0.245-0.527,0.148-1.188-0.451-1.625C257.086,198.835,254.861,198.847,253.944,197.996z M264.655,202.656
				c-2.17-1.324-3.695-1.494-4.134-0.547s0.68,2,3.094,2.795c1.832,0.607,2.568,0.52,2.833-0.053
				C266.713,204.277,266.303,203.66,264.655,202.656z"/>
			<path style="fill:#6F1F46;" d="M254.89,209.964c0.326,0.211,0.356,0.432,0.212,0.656c-0.104,0.164-0.284,0.309-0.518,0.447
				c-1.502,0.852-3.561,3.02-4.463,4.691c-0.49,0.896,0.428,1.488,1.021,0.656c2.614-3.658,5.349-5.709,8.248-3.844
				c2.817,1.812,2.894,4.836,0.082,9.205c-2.522,3.92-5.109,5.113-7.437,3.615c-1.389-0.893-1.551-3.02-0.309-4.904
				c1.295-1.967,2.93-2.041,3.876-0.596c0.731,1.107,1.661,1.502,2.068,0.869c0.434-0.674-0.374-1.885-1.967-2.91
				c-1.225-0.789-2.677-0.596-3.561,0.508l-0.898,1.127c-1.921,2.4-3.886,2.898-6.111,1.465c-3.307-2.127-1.821-6.455,0.268-9.701
				c1.063-1.654,2.281-3.006,3.085-3.674c0.838-0.672,1.769-0.594,2.544-0.094L254.89,209.964z"/>
			<path style="fill:#6F1F46;" d="M241.912,230.099c0.427-0.498,0.521-1.314-0.166-1.969c-1.318-1.26-2.672-1.621-4.643-3.092
				c-0.584-0.438-0.681-1.033-0.206-1.586l3.085-3.59c0.476-0.553,1.126-0.604,1.6-0.035c3.829,4.635,5.929,6.438,11.087,9.525
				c0.632,0.383,0.681,1.033,0.206,1.586l-3.086,3.592c-0.475,0.551-1.046,0.508-1.599,0.033c-1.199-1.062-1.743-2.105-2.638-3.002
				c-0.766-0.785-1.648-0.615-2.075-0.119c-0.443,0.516-0.446,1.377,0.43,2.035c1.021,0.748,2.135,1.129,3.366,2.154
				c0.552,0.475,0.681,1.033,0.206,1.586l-3.086,3.592c-0.475,0.553-1.125,0.602-1.599,0.035c-3.829-4.635-5.929-6.438-11.087-9.525
				c-0.632-0.383-0.681-1.033-0.206-1.586l3.085-3.592c0.475-0.553,1.078-0.547,1.599-0.035c1.75,1.727,2.327,2.992,3.757,4.123
				C240.691,230.812,241.468,230.615,241.912,230.099z"/>
			<path style="fill:#6F1F46;" d="M225.543,236.888c-0.586-0.449-0.565-1.102-0.033-1.6l3.454-3.236
				c0.531-0.498,1.184-0.477,1.593,0.137c3.307,5.02,5.199,7.039,9.994,10.666c0.587,0.447,0.565,1.1,0.034,1.598l-3.454,3.236
				c-0.532,0.498-1.184,0.479-1.594-0.137C232.231,242.533,230.338,240.513,225.543,236.888z"/>
			<path style="fill:#6F1F46;" d="M227.569,255.818c-8.956,6.674-19.346-7.389-10.059-14.311
				C226.467,234.833,236.857,248.896,227.569,255.818z M220.447,242.197c-2.239,1.67,1.577,14.875,4.187,12.932
				C226.873,253.458,223.056,240.253,220.447,242.197z"/>
			<path style="fill:#6F1F46;" d="M208.022,267.625c-2.131,1.115-4.582,0.141-5.439-2.127c-1.398-3.688-2.833-6.006-5.799-9.789
				c-0.451-0.586-0.263-1.211,0.38-1.555l4.175-2.238c0.642-0.344,1.139-0.086,1.504,0.545c1.302,2.223,1.526,4.391,2.813,6.842
				c0.633,1.232,1.736,1.439,2.485,1.039c0.749-0.402,1.187-1.436,0.533-2.656c-1.32-2.463-3.021-3.838-4.141-6.131
				c-0.323-0.654-0.263-1.209,0.38-1.555l4.174-2.236c0.643-0.346,1.268-0.156,1.505,0.543c1.9,5.707,3.209,8.146,6.907,12.889
				c0.451,0.584,0.263,1.209-0.38,1.553l-3.232,1.734c-1.37,0.734-2.062,0.059-2.885-2.863c-0.121-0.432-0.438-0.51-0.674-0.383
				c-0.171,0.092-0.285,0.289-0.212,0.582C210.856,264.48,210.131,266.521,208.022,267.625z"/>
			<path style="fill:#6F1F46;" d="M179.856,267.189c-1.459,0.289-2.32,0.812-3.228,1.348c-0.671,0.395-1.241,0.076-1.448-0.648
				l-1.374-4.559c-0.206-0.725,0.108-1.395,0.779-1.611c4.262-1.439,8.177,0.779,8.136,6.043c-0.022,2.406,0.611,7.023,2.387,6.52
				c2.336-0.666-2.369-11.6-3.452-13.186c-0.39-0.572-0.103-1.336,0.622-1.541l4.603-1.311c0.7-0.201,1.294,0.111,1.354,0.852
				c0.426,4.955,1.757,9.627,4.005,14.062c0.34,0.662-0.001,1.238-0.702,1.438l-8.62,2.455c-6.027,1.717-8.599-6.693-2.775-8.68
				C181.04,268.064,180.693,267.027,179.856,267.189z"/>
			<path style="fill:#6F1F46;" d="M167.465,269.484c-0.512-0.148-1.178-0.176-1.924-0.07c-1.611,0.227-3.532,1.039-4.767,2.367
				c-0.169,0.195-0.375,0.297-0.567,0.324c-0.265,0.039-0.505-0.1-0.562-0.508l-0.619-4.377c-0.361-2.549,3.718-3.887,5.594-4.152
				c5.17-0.732,9.006,2.283,9.765,7.645c0.735,5.195-1.928,8.908-6.882,9.609c-3.872,0.547-6.377-0.865-6.796-3.822
				c-0.408-2.887,2.144-5.135,6.761-5.789C168.188,270.609,168.183,269.703,167.465,269.484z M168.357,278.042
				c1.897-0.637,2.093-5.84,0.529-5.619C166.674,272.736,166.158,278.794,168.357,278.042z"/>
			<path style="fill:#6F1F46;" d="M147.99,273.468c-1.845,0.029-3.229-1.43-2.636-3.795c0.137-0.561,0.446-0.904,0.762-0.91
				c0.17-0.004,0.366,0.092,0.515,0.283c0.595,0.742,1.475,1.068,2.3,1.055c0.655-0.01,1.308-0.24,1.787-0.637
				c1.173-0.99,0.9-2.832,0.201-4.01c-0.374-0.625-0.068-1.189,0.66-1.201l5.122-0.084c0.729-0.012,1.197,0.443,1.088,1.174
				c-0.923,5.939-0.877,8.707,0.239,14.613c0.133,0.703-0.297,1.172-1.049,1.207c-2.184,0.109-3.858,0.186-5.558,0.213
				s-3.399,0.008-5.562-0.031c-0.753-0.012-1.197-0.441-1.209-1.17l-0.061-3.738c-0.011-0.656,0.395-1.123,0.904-1.131
				c0.146-0.004,0.292,0.043,0.438,0.113c1.102,0.541,2.37,0.859,3.438,0.842c0.389-0.006,0.776-0.061,1.091-0.162
				c2.053-0.689,1.664-3.646,0.475-3.627c-0.17,0.004-0.339,0.055-0.531,0.18C149.588,273.199,148.743,273.455,147.99,273.468z"/>
			<path style="fill:#6F1F46;" d="M137.516,264.564c0.26-0.557,0.76-0.865,1.315-0.801l4.56,0.527
				c0.699,0.08,1.12,0.668,0.924,1.305c-1.064,3.494-1.856,6.752-2.51,10.49c-0.658,3.787-2.762,5.059-7.128,4.555
				c-4.391-0.51-6.126-2.201-5.899-6.062c0.219-3.789,0.191-7.141-0.047-10.787c-0.045-0.664,0.499-1.139,1.198-1.059l4.56,0.527
				c0.555,0.064,0.972,0.48,1.098,1.08c0.249,1.229-0.924,3.121-0.836,4.477c0.037,0.736,0.574,1.166,1.152,1.232
				c0.579,0.068,1.176-0.23,1.404-0.938C137.703,267.812,136.994,265.701,137.516,264.564z M136.438,276.199
				c0.58-2.477,0.266-3.979-0.772-4.1c-1.037-0.119-1.687,1.271-1.688,3.814c-0.004,1.93,0.31,2.602,0.937,2.676
				C135.542,278.662,136,278.08,136.438,276.199z"/>
			<path style="fill:#6F1F46;" d="M126.478,269.218c-0.098,0.377-0.299,0.477-0.558,0.408c-0.188-0.049-0.381-0.174-0.586-0.352
				c-1.28-1.16-3.985-2.438-5.856-2.771c-1.006-0.186-1.279,0.873-0.304,1.176c4.295,1.338,7.101,3.293,6.236,6.633
				c-0.841,3.244-3.688,4.264-8.721,2.961c-4.515-1.17-6.459-3.254-5.765-5.934c0.414-1.6,2.383-2.42,4.563-1.83
				c2.274,0.615,2.856,2.146,1.779,3.498c-0.822,1.041-0.907,2.047-0.178,2.236c0.775,0.201,1.675-0.945,2.149-2.779
				c0.365-1.412-0.271-2.73-1.599-3.225l-1.351-0.5c-2.884-1.074-3.972-2.785-3.308-5.348c0.986-3.811,5.563-3.754,9.302-2.785
				c1.905,0.492,3.572,1.225,4.457,1.781c0.902,0.584,1.118,1.494,0.887,2.387L126.478,269.218z"/>
			<path style="fill:#6F1F46;" d="M103.303,263.179c0.605,0.25,1.411,0.084,1.818-0.771c0.788-1.645,0.711-3.043,1.494-5.375
				c0.234-0.691,0.771-0.969,1.443-0.689l4.374,1.814c0.673,0.279,0.922,0.883,0.53,1.51c-3.213,5.082-4.274,7.639-5.603,13.504
				c-0.168,0.719-0.771,0.969-1.443,0.689l-4.374-1.816c-0.673-0.279-0.811-0.836-0.531-1.508c0.637-1.471,1.46-2.312,2.033-3.443
				c0.509-0.971,0.072-1.758-0.533-2.008c-0.628-0.262-1.448,0.004-1.8,1.041c-0.394,1.203-0.409,2.381-1.001,3.869
				c-0.279,0.674-0.77,0.969-1.442,0.689l-4.374-1.814c-0.673-0.279-0.923-0.883-0.531-1.508c3.213-5.082,4.274-7.639,5.604-13.504
				c0.167-0.719,0.77-0.969,1.442-0.689l4.374,1.814c0.673,0.279,0.855,0.855,0.531,1.51c-1.097,2.199-2.119,3.143-2.75,4.854
				C102.247,262.24,102.675,262.917,103.303,263.179z"/>
			<path style="fill:#6F1F46;" d="M91.728,249.714c0.245-0.697,0.872-0.879,1.511-0.529l4.15,2.283
				c0.639,0.352,0.82,0.979,0.363,1.559c-3.75,4.701-5.084,7.129-7.046,12.812c-0.244,0.697-0.871,0.881-1.51,0.529l-4.15-2.283
				c-0.639-0.35-0.821-0.977-0.363-1.557C88.432,257.826,89.767,255.4,91.728,249.714z"/>
			<path style="fill:#6F1F46;" d="M74.373,257.521c-9.124-6.443,1.021-20.684,10.482-14.002
				C93.98,249.962,83.834,264.203,74.373,257.521z M85.111,246.523c-2.28-1.609-13.652,6.115-10.994,7.992
				C76.398,256.126,87.769,248.4,85.111,246.523z"/>
			<path style="fill:#6F1F46;" d="M57.111,242.607c-1.72-1.678-1.556-4.311,0.334-5.828c3.071-2.473,4.828-4.557,7.505-8.549
				c0.416-0.609,1.068-0.625,1.595-0.121l3.422,3.273c0.526,0.504,0.436,1.055-0.051,1.598c-1.709,1.928-3.699,2.812-5.63,4.797
				c-0.975,0.984-0.829,2.096-0.215,2.684s1.732,0.684,2.689-0.316c1.93-2.018,2.709-4.062,4.542-5.838
				c0.521-0.51,1.067-0.625,1.594-0.121l3.422,3.273c0.526,0.504,0.541,1.156-0.05,1.598c-4.833,3.576-6.746,5.578-10.104,10.564
				c-0.416,0.609-1.068,0.625-1.595,0.121l-2.649-2.535c-1.123-1.074-0.696-1.941,1.825-3.629c0.372-0.25,0.348-0.576,0.155-0.76
				c-0.141-0.135-0.365-0.182-0.619-0.021C60.979,244.326,58.814,244.271,57.111,242.607z"/>
		</g>
	</g>
</g>
<g id="Head">
	
		<ellipse transform="matrix(0.9462 -0.3235 0.3235 0.9462 -12.6172 40.4839)" style="fill:#E1A946;stroke:#6F1F46;stroke-width:2;stroke-miterlimit:10;" cx="115.477" cy="58.198" rx="33.657" ry="14.251"/>
	<path style="fill:#E1A946;stroke:#6F1F46;stroke-width:2;stroke-miterlimit:10;" d="M124.32,25.578L88.063,37.973l8.147,23.299
		c1.449,4.239,10.741,4.901,20.753,1.479c10.012-3.423,16.954-9.634,15.504-13.874L124.32,25.578z"/>
	
		<ellipse transform="matrix(0.9462 -0.3235 0.3235 0.9462 -4.3507 36.0113)" style="fill:#E1A946;stroke:#6F1F46;stroke-width:2;stroke-miterlimit:10;" cx="106.156" cy="31.094" rx="19.159" ry="8.112"/>
</g>
</svg>
