<?xml version="1.0" encoding="iso-8859-1"?>
<!-- Generator: Adobe Illustrator 27.8.1, SVG Export Plug-In . SVG Version: 6.00 Build 0)  -->
<svg version="1.1" xmlns="http://www.w3.org/2000/svg" xmlns:xlink="http://www.w3.org/1999/xlink" x="0px" y="0px"
	 viewBox="0 0 50 50" style="enable-background:new 0 0 50 50;" xml:space="preserve">
<g id="Laag_1">
</g>
<g id="left_arm">
	<g>
		<path style="fill:#E1A946;stroke:#6F1F46;stroke-width:0.9585;stroke-miterlimit:10;" d="M35.341,39.281H14.659
			c-2.176,0-3.94-1.764-3.94-3.94V14.659c0-2.176,1.764-3.94,3.94-3.94h20.682c2.176,0,3.94,1.764,3.94,3.94v20.682
			C39.281,37.517,37.517,39.281,35.341,39.281z"/>
		<path style="fill:#E1A946;stroke:#6F1F46;stroke-width:0.9585;stroke-miterlimit:10;" d="M32.334,34.297H17.666
			c-1.084,0-1.963-0.879-1.963-1.963V17.666c0-1.084,0.879-1.963,1.963-1.963h14.668c1.084,0,1.963,0.879,1.963,1.963v14.668
			C34.297,33.418,33.418,34.297,32.334,34.297z"/>
		<path style="fill:#E1A946;stroke:#6F1F46;stroke-width:0.9585;stroke-miterlimit:10;" d="M25,29.696L25,29.696
			c-2.594,0-4.696-2.103-4.696-4.696v0c0-2.594,2.103-4.696,4.696-4.696h0c2.594,0,4.696,2.103,4.696,4.696v0
			C29.696,27.594,27.594,29.696,25,29.696z"/>
		<path style="fill:#E1A946;stroke:#6F1F46;stroke-width:0.9585;stroke-miterlimit:10;" d="M30.367,20.399L30.367,20.399
			c-0.847,0-1.534-0.687-1.534-1.534v0c0-0.847,0.687-1.534,1.534-1.534h0c0.847,0,1.534,0.687,1.534,1.534v0
			C31.901,19.713,31.214,20.399,30.367,20.399z"/>
	</g>
</g>
</svg>
