<?xml version="1.0" encoding="iso-8859-1"?>
<!-- Generator: Adobe Illustrator 27.8.1, SVG Export Plug-In . SVG Version: 6.00 Build 0)  -->
<svg version="1.1" xmlns="http://www.w3.org/2000/svg" xmlns:xlink="http://www.w3.org/1999/xlink" x="0px" y="0px"
	 viewBox="0 0 50 50" style="enable-background:new 0 0 50 50;" xml:space="preserve">
<g id="Laag_1">
</g>
<g id="left_arm">
	<g>
		
			<path style="fill:#E1A946;stroke:#6F1F46;stroke-width:0.9585;stroke-linecap:round;stroke-linejoin:round;stroke-miterlimit:10;" d="
			M35.341,39.281H14.659c-2.176,0-3.94-1.764-3.94-3.94V14.659c0-2.176,1.764-3.94,3.94-3.94h20.682c2.176,0,3.94,1.764,3.94,3.94
			v20.682C39.281,37.517,37.517,39.281,35.341,39.281z"/>
		
			<path style="fill:#E1A946;stroke:#6F1F46;stroke-width:0.9585;stroke-linecap:round;stroke-linejoin:round;stroke-miterlimit:10;" d="
			M28.657,15.176h-4.057v7.874c-0.626-0.219-1.299-0.339-2-0.339c-3.345,0-6.057,2.712-6.057,6.057s2.712,6.057,6.057,6.057
			s6.057-2.712,6.057-6.057c0-0.01-0.001-0.019-0.001-0.029h0.001v-7.482c0,0,1.92,1.28,4.801,1.28v-3.923
			C33.457,18.614,28.657,18.376,28.657,15.176z M22.449,31.289c-1.488,0-2.695-1.207-2.695-2.695c0-1.488,1.207-2.695,2.695-2.695
			c1.488,0,2.695,1.207,2.695,2.695C25.144,30.082,23.938,31.289,22.449,31.289z"/>
	</g>
</g>
</svg>
