<?xml version="1.0" encoding="iso-8859-1"?>
<!-- Generator: Adobe Illustrator 27.8.1, SVG Export Plug-In . SVG Version: 6.00 Build 0)  -->
<svg version="1.1" xmlns="http://www.w3.org/2000/svg" xmlns:xlink="http://www.w3.org/1999/xlink" x="0px" y="0px"
	 viewBox="0 0 300 300" style="enable-background:new 0 0 300 300;" xml:space="preserve">
<g id="floor">
</g>
<g id="Legs">
</g>
<g id="Laag_1">
</g>
<g id="island_small">
</g>
<g id="smile">
</g>
<g id="Eyes">
</g>
<g id="Shoes">
</g>
<g id="big_island">
</g>
<g id="right_arm">
</g>
<g id="island_right">
</g>
<g id="left_arm">
</g>
<g id="Laag_16">
</g>
<g id="Head">
	<g>
		<ellipse style="fill:#6F1F46;" cx="145.098" cy="269.931" rx="97.291" ry="11.069"/>
		
			<line style="fill:none;stroke:#FDFBD2;stroke-width:1.0018;stroke-miterlimit:10;" x1="137.677" y1="212.589" x2="137.677" y2="229.433"/>
		<path style="fill:none;stroke:#FDFBD2;stroke-width:1.0018;stroke-miterlimit:10;" d="M134.672,207.246"/>
		<path style="fill:none;stroke:#FDFBD2;stroke-width:1.0018;stroke-miterlimit:10;" d="M172.742,207.246"/>
		<g>
			
				<line style="fill:none;stroke:#FDFBD2;stroke-width:1.0018;stroke-miterlimit:10;" x1="138.5" y1="215.091" x2="138.5" y2="231.935"/>
			
				<polygon style="fill:#E1A946;stroke:#6F1F46;stroke-width:1.6697;stroke-linecap:round;stroke-linejoin:round;stroke-miterlimit:10;" points="
				113.899,207.086 178.283,207.086 178.283,241.98 152.107,241.98 152.107,228.262 140.006,228.262 140.006,242.663 
				114.158,242.663 			"/>
			
				<line style="fill:none;stroke:#6F1F46;stroke-width:1.6697;stroke-linecap:round;stroke-linejoin:round;stroke-miterlimit:10;" x1="146.158" y1="216.385" x2="146.158" y2="227.739"/>
			
				<circle style="fill:#FFFFFF;stroke:#6F1F46;stroke-width:1.1927;stroke-linecap:round;stroke-linejoin:round;stroke-miterlimit:10;" cx="142.484" cy="222.062" r="2.505"/>
			
				<circle style="fill:#FFFFFF;stroke:#6F1F46;stroke-width:1.1927;stroke-linecap:round;stroke-linejoin:round;stroke-miterlimit:10;" cx="149.831" cy="222.062" r="2.505"/>
			
				<path style="fill:#E1A946;stroke:#6F1F46;stroke-width:1.731;stroke-linecap:round;stroke-linejoin:round;stroke-miterlimit:10;" d="
				M133.301,207.861c-2.929,7.905-10.501,13.886-18.869,14.905"/>
			
				<path style="fill:#E1A946;stroke:#6F1F46;stroke-width:1.6697;stroke-linecap:round;stroke-linejoin:round;stroke-miterlimit:10;" d="
				M159.015,207.644c2.971,8.02,10.654,14.088,19.144,15.122"/>
		</g>
		<circle style="fill:#5A7EAE;stroke:#6F1F46;stroke-width:1.6697;stroke-miterlimit:10;" cx="145.076" cy="130.751" r="86.193"/>
		<g>
			<path style="fill:#FDFBD2;" d="M146.961,45.835c46.508-1.059,84.378,40.07,83.425,85.873
				c0.01,46.037-39.728,85.096-85.765,84.084c45.054-0.116,84.425-38.943,84.1-84.103C229.768,86.469,192.684,46.103,146.961,45.835
				L146.961,45.835z"/>
		</g>
		<path style="fill:#568C6D;stroke:#6F1F46;stroke-width:1.6697;stroke-miterlimit:10;" d="M203.428,188.814"/>
		<g>
			<path style="fill:none;" d="M119.558,87.691"/>
		</g>
		<path style="fill:#568C6D;stroke:#6F1F46;stroke-width:1.6697;stroke-miterlimit:10;" d="M124.477,166.694
			c-1,0.768-1.63,1.813-2.02,3c-1.557,4.737,1.439,9.776,6.305,10.863c0.543,0.121,1.085,0.24,1.625,0.364
			c2.855,0.655,5.772,1.504,8.02,3.382c2.248,1.878,3.665,5.036,2.708,7.804c-0.775,2.241-2.973,4.049-2.832,6.416
			c0.152,2.558,2.903,4.056,5.332,4.869c8.049,2.691,26.353,6.489,31.137-3.529c1.913-4.007,0.103-8.797-2.314-12.522
			s-5.514-7.216-6.431-11.561c-1.008-4.779,0.814-9.638,2.317-14.285c1.503-4.648,2.67-9.891,0.496-14.266
			c-2.376-4.782-8.613-7.039-13.677-5.345c-5.064,1.694-8.608,6.844-8.914,12.175c-0.219,3.809,0.822,8.25-1.839,10.984
			c-2.424,2.489-6.492,1.982-9.87,1.171C131.142,165.403,127.229,164.573,124.477,166.694z"/>
		<g>
			<path style="fill:#FDFBD2;" d="M173.767,199.913c1.859-4.547-1.371-8.807-3.939-12.353c-2.761-3.717-6.139-7.619-6.47-12.536
				c-0.569-7.213,3.31-13.621,5.058-20.346c0.616-2.195,0.565-4.621-0.163-6.735c1.22,2.033,1.287,4.574,0.95,6.885
				c-1.116,6.693-4.767,13.296-4.198,20.043C165.44,183.605,178.357,190.81,173.767,199.913L173.767,199.913z"/>
		</g>
		
			<path style="fill:none;stroke:#6F1F46;stroke-width:1.6697;stroke-linecap:round;stroke-linejoin:round;stroke-miterlimit:10;" d="
			M146.058,175.028c-0.09-0.564,0.083-1.174,0.492-1.573c0.408-0.399,1.052-0.555,1.582-0.344s0.896,0.802,0.806,1.365
			c0.205-0.958,1.233-1.66,2.199-1.502c0.967,0.157,1.719,1.149,1.609,2.122"/>
		
			<path style="fill:none;stroke:#6F1F46;stroke-width:1.6697;stroke-linecap:round;stroke-linejoin:round;stroke-miterlimit:10;" d="
			M157.523,195.148c0.588,0.686,1.176,1.373,1.765,2.059"/>
		
			<path style="fill:none;stroke:#6F1F46;stroke-width:1.6697;stroke-linecap:round;stroke-linejoin:round;stroke-miterlimit:10;" d="
			M159.026,192.977c0.588,0.686,1.176,1.373,1.765,2.059"/>
		
			<path style="fill:none;stroke:#6F1F46;stroke-width:1.6697;stroke-linecap:round;stroke-linejoin:round;stroke-miterlimit:10;" d="
			M168.58,125.442c0.793,1.555,2.538,2.573,4.282,2.496c1.744-0.076,3.394-1.242,4.049-2.86"/>
		<circle style="fill:#FFFFFF;stroke:#6F1F46;stroke-width:1.3358;stroke-miterlimit:10;" cx="181.314" cy="110.003" r="10.706"/>
		<circle style="fill:#6F1F46;" cx="182.333" cy="113.561" r="6.613"/>
		<circle style="fill:#FFFFFF;" cx="182.735" cy="113.083" r="1"/>
		<circle style="fill:#FFFFFF;" cx="185.055" cy="116.297" r="1.556"/>
		<circle style="fill:#FFFFFF;" cx="181.209" cy="116.17" r="1.102"/>
		<path style="fill:#5A7EAE;stroke:#6F1F46;stroke-width:1.3358;stroke-miterlimit:10;" d="M192.003,109.853h-21.414
			c0.047-5.872,4.825-10.62,10.705-10.62C187.179,99.233,191.956,103.981,192.003,109.853z"/>
		<circle style="fill:#FFFFFF;stroke:#6F1F46;stroke-width:1.3358;stroke-miterlimit:10;" cx="163.68" cy="110.003" r="10.706"/>
		<circle style="fill:#6F1F46;" cx="164.138" cy="113.561" r="6.613"/>
		<circle style="fill:#FFFFFF;" cx="164.541" cy="113.083" r="1"/>
		<circle style="fill:#FFFFFF;" cx="166.861" cy="116.297" r="1.556"/>
		<circle style="fill:#FFFFFF;" cx="163.015" cy="116.17" r="1.102"/>
		<path style="fill:#5A7EAE;stroke:#6F1F46;stroke-width:1.3358;stroke-miterlimit:10;" d="M174.396,109.853h-21.414
			c0.047-5.872,4.825-10.62,10.705-10.62C169.571,99.233,174.349,103.981,174.396,109.853z"/>
		<path style="fill:#5A7EAE;stroke:#6F1F46;stroke-width:1.2743;stroke-miterlimit:10;" d="M113.076,237.85"/>
		<path style="fill:#E1A946;stroke:#6F1F46;stroke-width:1.5484;stroke-miterlimit:10;" d="M204.195,270.835
			c-0.146,1.676-0.792,3.377-2.087,4.45c-1.508,1.25-3.6,1.455-5.555,1.568c-11.987,0.688-24.059-0.137-35.841-2.447
			c-3-0.588-6.103-1.33-8.465-3.271c-1.129-0.928-2.063-2.135-2.494-3.532c-0.431-1.397-0.318-2.991,0.468-4.223
			c0.771-1.208,2.106-1.969,3.491-2.334c1.386-0.365,2.837-0.377,4.27-0.377c13.571,0.003,27.141,0.922,40.588,2.75
			c1.577,0.214,4.063,0.499,5,2.007C204.393,266.75,204.325,269.357,204.195,270.835z"/>
		
			<path style="fill:#E1A946;stroke:#6F1F46;stroke-width:1.5484;stroke-linecap:round;stroke-linejoin:round;stroke-miterlimit:10;" d="
			M175.007,253.215c-0.728-4.288,1.989-8.96,5.436-11.612c3.447-2.652,8.584-3.017,12.758-1.795
			c4.174,1.222,7.711,4.116,9.749,7.958c2.038,3.842,2.615,12.316,1.888,16.604c-0.284,1.673-0.83,3.424-2.155,4.484
			c-1.166,0.933-2.727,1.165-4.21,1.341c-12.742,1.507-25.695,1.221-38.357-0.848c-2.285-0.373-4.672-0.855-6.448-2.339
			c-1.695-1.416-2.611-3.593-2.934-5.778c-0.567-3.836-0.102-19.529,0.078-23.402c4.264-1.935,12.515-2.699,15.214-2.699
			c2.157,0,8.149,0,10.306,0c1.963,0,4.172,0.982,4.102,6.489"/>
		<path style="fill:#FFFFFF;stroke:#6F1F46;stroke-width:1.5484;stroke-miterlimit:10;" d="M184.12,245.441
			c0.605,0.286,1.245,0.703,1.371,1.361c0.16,0.838-0.651,1.598-1.49,1.753c-0.839,0.155-1.691-0.103-2.53-0.263
			c-2.459-0.469-5.076-0.07-7.283,1.111c-0.575,0.308-1.13,0.67-1.755,0.857c-1.551,0.466-3.215-0.914-1.997-2.356
			c1.007-1.193,2.813-2.137,4.246-2.694C177.689,244.041,181.185,244.052,184.12,245.441z"/>
		<path style="fill:#FFFFFF;stroke:#6F1F46;stroke-width:1.5484;stroke-miterlimit:10;" d="M182.53,242.167
			c0.605,0.286,1.245,0.703,1.371,1.361c0.16,0.838-0.651,1.598-1.49,1.753c-0.839,0.155-1.691-0.103-2.53-0.263
			c-2.459-0.469-5.076-0.07-7.283,1.111c-0.575,0.308-1.13,0.67-1.755,0.857c-1.551,0.466-3.215-0.914-1.997-2.356
			c1.007-1.193,2.813-2.137,4.246-2.694C176.099,240.767,179.595,240.778,182.53,242.167z"/>
		
			<path style="fill:#E1A946;stroke:#6F1F46;stroke-width:1.5484;stroke-linecap:round;stroke-linejoin:round;stroke-miterlimit:10;" d="
			M175.007,253.215c-0.728-4.288,1.989-8.96,5.436-11.612c3.447-2.652,8.584-3.017,12.758-1.795
			c4.174,1.222,7.711,4.116,9.749,7.958c2.038,3.842,2.615,12.316,1.888,16.604c-0.284,1.673-0.83,3.424-2.155,4.484
			c-1.166,0.933-2.727,1.165-4.21,1.341c-12.742,1.507-25.695,1.221-38.357-0.848c-2.285-0.373-4.672-0.855-6.448-2.339"/>
		<path style="fill:#E1A946;stroke:#6F1F46;stroke-width:1.5484;stroke-miterlimit:10;" d="M87.876,270.835
			c0.146,1.676,0.792,3.377,2.087,4.45c1.508,1.25,3.6,1.455,5.555,1.568c11.987,0.688,24.059-0.137,35.841-2.447
			c3-0.588,6.103-1.33,8.465-3.271c1.129-0.928,2.063-2.135,2.494-3.532c0.431-1.397,0.318-2.991-0.468-4.223
			c-0.771-1.208-2.106-1.969-3.491-2.334c-1.386-0.365-2.837-0.377-4.27-0.377c-13.571,0.003-27.141,0.922-40.588,2.75
			c-1.577,0.214-4.063,0.499-5,2.007C87.678,266.75,87.747,269.357,87.876,270.835z"/>
		
			<path style="fill:#E1A946;stroke:#6F1F46;stroke-width:1.5484;stroke-linecap:round;stroke-linejoin:round;stroke-miterlimit:10;" d="
			M117.064,253.215c0.728-4.288-1.989-8.96-5.436-11.612c-3.447-2.652-8.584-3.017-12.758-1.795
			c-4.174,1.222-7.711,4.116-9.749,7.958c-2.038,3.842-2.615,12.316-1.888,16.604c0.284,1.673,0.83,3.424,2.155,4.484
			c1.166,0.933,2.727,1.165,4.21,1.341c12.742,1.507,25.695,1.221,38.357-0.848c2.285-0.373,4.672-0.855,6.448-2.339
			c1.695-1.416,2.611-3.593,2.934-5.778c0.567-3.836,0.102-19.529-0.078-23.402c-4.264-1.935-12.515-2.699-15.214-2.699
			c-2.157,0-8.149,0-10.306,0c-1.963,0-4.172,0.982-4.103,6.489"/>
		<path style="fill:#FFFFFF;stroke:#6F1F46;stroke-width:1.5484;stroke-miterlimit:10;" d="M107.951,245.441
			c-0.605,0.286-1.245,0.703-1.371,1.361c-0.16,0.838,0.651,1.598,1.49,1.753c0.839,0.155,1.691-0.103,2.53-0.263
			c2.459-0.469,5.076-0.07,7.283,1.111c0.575,0.308,1.13,0.67,1.755,0.857c1.551,0.466,3.215-0.914,1.997-2.356
			c-1.007-1.193-2.813-2.137-4.246-2.694C114.382,244.041,110.886,244.052,107.951,245.441z"/>
		<path style="fill:#FFFFFF;stroke:#6F1F46;stroke-width:1.5484;stroke-miterlimit:10;" d="M109.542,242.167
			c-0.605,0.286-1.245,0.703-1.371,1.361c-0.16,0.838,0.651,1.598,1.49,1.753c0.839,0.155,1.691-0.103,2.53-0.263
			c2.459-0.469,5.076-0.07,7.283,1.111c0.575,0.308,1.13,0.67,1.755,0.857c1.551,0.466,3.215-0.914,1.997-2.356
			c-1.007-1.193-2.813-2.137-4.246-2.694C115.972,240.767,112.476,240.778,109.542,242.167z"/>
		
			<path style="fill:#E1A946;stroke:#6F1F46;stroke-width:1.5484;stroke-linecap:round;stroke-linejoin:round;stroke-miterlimit:10;" d="
			M117.064,253.215c0.728-4.288-1.989-8.96-5.436-11.612c-3.447-2.652-8.584-3.017-12.758-1.795
			c-4.174,1.222-7.711,4.116-9.749,7.958c-2.038,3.842-2.615,12.316-1.888,16.604c0.284,1.673,0.83,3.424,2.155,4.484
			c1.166,0.933,2.727,1.165,4.21,1.341c12.742,1.507,25.695,1.221,38.357-0.848c2.285-0.373,4.672-0.855,6.448-2.339"/>
		<path style="fill:#568C6D;stroke:#6F1F46;stroke-width:1.6697;stroke-miterlimit:10;" d="M82.981,190.777
			c-33.66-33.66-33.66-88.235,0-121.895c7.521-7.521,16.498-13.982,26.499-17.602c6.036-2.185,12.863-3.365,18.788-0.895
			c5.925,2.471,10.168,9.662,7.57,15.532c-3.021,6.824-13.364,9.161-14.3,16.565c-0.482,3.81,1.875,7.309,3.621,10.729
			c1.746,3.42,2.801,7.978,0.19,10.794c-3.826,4.127-10.992,0.42-16.225,2.492c-5.417,2.145-6.509,9.374-5.651,15.137
			c1.173,7.879,4.348,15.295,6.767,22.884c2.419,7.59,4.096,15.754,2.184,23.487C109.357,180.413,95.66,192.392,82.981,190.777z"/>
		
			<path style="fill:none;stroke:#6F1F46;stroke-width:1.6697;stroke-linecap:round;stroke-linejoin:round;stroke-miterlimit:10;" d="
			M78.679,96.056c-0.09-0.564,0.083-1.174,0.492-1.573c0.408-0.399,1.052-0.555,1.582-0.344c0.53,0.211,0.896,0.802,0.806,1.365
			c0.205-0.958,1.233-1.66,2.199-1.502c0.967,0.157,1.719,1.149,1.609,2.122"/>
		
			<path style="fill:none;stroke:#6F1F46;stroke-width:1.6697;stroke-linecap:round;stroke-linejoin:round;stroke-miterlimit:10;" d="
			M109.018,76.739c-0.09-0.564,0.083-1.174,0.492-1.573c0.408-0.399,1.052-0.555,1.582-0.344s0.896,0.802,0.806,1.365
			c0.205-0.958,1.233-1.66,2.199-1.502c0.967,0.157,1.719,1.149,1.609,2.122"/>
		
			<path style="fill:none;stroke:#6F1F46;stroke-width:1.6697;stroke-linecap:round;stroke-linejoin:round;stroke-miterlimit:10;" d="
			M86.694,164.359c-0.09-0.564,0.083-1.174,0.492-1.573c0.408-0.399,1.052-0.555,1.582-0.344s0.896,0.802,0.806,1.365
			c0.205-0.958,1.233-1.66,2.199-1.502c0.967,0.157,1.719,1.149,1.609,2.122"/>
		
			<path style="fill:none;stroke:#6F1F46;stroke-width:1.6697;stroke-linecap:round;stroke-linejoin:round;stroke-miterlimit:10;" d="
			M79.632,129.718c0.588,0.686,1.176,1.373,1.765,2.059"/>
		
			<path style="fill:none;stroke:#6F1F46;stroke-width:1.6697;stroke-linecap:round;stroke-linejoin:round;stroke-miterlimit:10;" d="
			M81.135,127.547c0.588,0.686,1.176,1.373,1.765,2.059"/>
		<g>
			<path style="fill:#FDFBD2;" d="M83.321,189.848c12.863-0.801,23.82-11.01,26.822-23.311c1.222-6.161-0.023-12.64-1.376-18.733
				c-1.114-4.658-2.508-9.265-4.063-13.803c-3.229-8.434-6.953-24.831,4.596-28.857c-10.004,4.29-7.221,17.995-4.107,26.119
				c2.007,5.28,3.829,10.664,5.158,16.162c1.468,6.346,2.698,12.939,1.342,19.467C108.514,179.483,96.376,190.425,83.321,189.848
				L83.321,189.848z"/>
		</g>
		<path style="fill:#5A7EAE;" d="M260.664,107.348c0.039-1.192-0.456-2.329-0.965-3.408c-0.534-1.13-1.099-2.264-1.345-3.489
			c-0.246-1.225-0.136-2.581,0.594-3.595c0.72-1.002,1.981-1.546,3.215-1.531c1.234,0.015,2.427,0.546,3.373,1.338
			c1.439,1.205,2.322,2.974,2.745,4.803c0.423,1.828,0.421,3.727,0.336,5.602c1.528-1.492,3.662-2.346,5.797-2.319
			c1.342,0.017,2.735,0.405,3.683,1.355c0.736,0.737,1.139,1.739,1.443,2.734c0.542,1.77,0.832,3.674,0.386,5.47
			c-0.446,1.796-1.742,3.459-3.527,3.949c-1.785,0.49-3.961-0.501-4.436-2.29c-0.193-0.727-0.147-1.59-0.694-2.107
			c-0.773-0.732-2.03-0.197-2.931,0.37c-1.787,1.123-3.614,2.294-5.687,2.691c-1.89,0.362-5.662-0.053-4.975-2.73
			C258.298,111.77,260.579,109.926,260.664,107.348z"/>
		<path style="fill:#5A7EAE;" d="M284.83,111.124c1.15,0.725,1.794,2.073,1.973,3.42s-0.046,2.714-0.296,4.05
			c-0.166,0.885-0.361,1.809-0.935,2.502c-0.737,0.89-1.948,1.221-3.093,1.376c-1.288,0.174-2.638,0.18-3.843-0.307
			c-1.205-0.486-2.24-1.544-2.411-2.833c-0.132-0.998,0.256-1.999,0.799-2.846c0.543-0.847,1.242-1.583,1.831-2.398
			c0.501-0.693,0.889-1.435,1.245-2.21c0.207-0.45,0.412-0.965,0.854-1.237C281.978,110.011,283.909,110.544,284.83,111.124z"/>
		<path style="fill:#5A7EAE;" d="M251.194,126.644c-2.136,2.506-4.576,4.742-6.669,7.285c-1.25,1.519-0.795-1.023-2.514-0.068
			c-1.49,0.828-3.687,1.238-5.392,1.22c-2.862-0.03-7.216-0.043-9.506-1.759c0.298,2.263,0.821,7.917,1.636,10.048
			c0.816,2.132,1.202,7.009,3.203,8.106c1.859,1.02,5.069-1.701,7.187-1.794c7.148-0.314,14.139-3.391,19.197-8.451
			c2.981-2.982,5.317-6.618,8.64-9.213c3.515-2.745,7.94-4.165,11.362-7.025c0.541-0.452,1.1-1.057,1.004-1.756
			c-0.051-0.369-0.28-0.687-0.517-0.974c-1.077-1.307-2.448-2.336-3.634-3.545s-2.221-2.696-2.353-4.384
			c-0.097-1.233,0.285-2.553-0.253-3.667c-0.54-1.117-1.891-1.658-3.13-1.588s-2.391,0.637-3.478,1.234
			c-2.705,1.486-5.264,3.239-7.627,5.224c-0.903,0.758-2.373,1.655-2.628,2.856c-0.298,1.408-0.83,2.731-1.523,3.994
			C253.363,123.913,252.321,125.32,251.194,126.644z"/>
		
			<path style="fill:none;stroke:#6F1F46;stroke-width:1.6697;stroke-linecap:round;stroke-linejoin:round;stroke-miterlimit:10;" d="
			M226.903,133.372c0,0,20.561,10.847,29.994-17.142c0.86-2.55,4.021-5.219,3.595-7.877s-1.946-5.021-2.56-7.642
			c-0.051-0.218-0.093-0.442-0.125-0.669c-0.566-4.004,4.091-6.636,7.323-4.206c0.991,0.745,1.853,1.662,2.522,2.706
			c1.564,2.443,2.049,5.55,1.303,8.354c1.688-2.615,5.618-3.243,8.276-1.624c2.658,1.619,3.932,5.027,3.441,8.1
			c-0.282,1.763-1.136,3.502-2.614,4.504c-1.478,1.002-3.625,1.092-4.985-0.066c-1.097-0.934-1.512-2.499-1.33-3.929
			c0.182-1.43,0.885-2.743,1.712-3.923"/>
		
			<path style="fill:#5A7EAE;stroke:#6F1F46;stroke-width:1.6697;stroke-linecap:round;stroke-linejoin:round;stroke-miterlimit:10;" d="
			M286.985,119.424c1.913-0.394,4.023,0.862,4.588,2.732c0.565,1.87-0.496,4.084-2.307,4.816c-2.117,0.854-6.093,0.291-8.357,0.002
			c0,0-3.123,7.904-11.958,5.539c0,0-9.238,35.141-44.228,22.926"/>
		
			<path style="fill:none;stroke:#6F1F46;stroke-width:1.6697;stroke-linecap:round;stroke-linejoin:round;stroke-miterlimit:10;" d="
			M275.562,118.629c-0.297,3.112,1.931,5.084,5.553,4.498c3.206-0.519,5.982-3.375,6.143-6.619s-2.702-6.451-5.945-6.275"/>
		
			<path style="fill:none;stroke:#6F1F46;stroke-width:1.6697;stroke-linecap:round;stroke-linejoin:round;stroke-miterlimit:10;" d="
			M261.208,124.497c1.647,0.334,3.455-0.306,4.525-1.601"/>
		
			<path style="fill:#E1A946;stroke:#6F1F46;stroke-width:1.6798;stroke-linecap:round;stroke-linejoin:round;stroke-miterlimit:10;" d="
			M243.467,131.637l14.128,22.487c0,0-18.285,14.201-34.621,5.204s-0.303,0-0.303,0l-0.233-23.887
			C222.437,135.44,236.215,136.987,243.467,131.637z"/>
		<path style="fill:#568C6D;stroke:#6F1F46;stroke-width:1.6697;stroke-miterlimit:10;" d="M215.806,176.755
			c9.878-6.382,14.382-17.601,15.706-22.754c1.074-4.179,2.421-12.703,2.725-17.007c2.206-31.31-7.173-32.534-7.173-32.534
			c-1.077,13.996-15.288,13.216-21.978,12.056c-3.687-0.639-7.31,1.484-8.551,5.014c-1.92,5.461-0.189,12.987,1.836,18.808
			c3.217,9.242,2.254,19.47-2.889,27.795C191.13,175.176,191.743,192.3,215.806,176.755z"/>
		<g>
			<path style="fill:#FDFBD2;" d="M228.016,105.745c6.839,6.946,6.287,19.891,5.764,28.983c-0.739,10.028-2.537,20.205-7.36,29.158
				c-3.149,5.921-8.008,11.193-14.026,14.047c4.318-2.532,7.947-6.054,10.644-10.241c8.086-12.649,9.367-28.334,9.389-42.996
				C232.123,118.255,231.881,111.165,228.016,105.745L228.016,105.745z"/>
		</g>
		
			<path style="fill:none;stroke:#6F1F46;stroke-width:1.6697;stroke-linecap:round;stroke-linejoin:round;stroke-miterlimit:10;" d="
			M210.69,168.012c-0.09-0.564,0.083-1.174,0.492-1.573c0.408-0.399,1.052-0.555,1.582-0.344c0.53,0.211,0.896,0.802,0.806,1.365
			c0.205-0.958,1.233-1.66,2.199-1.502c0.967,0.157,1.719,1.149,1.609,2.122"/>
		
			<path style="fill:none;stroke:#6F1F46;stroke-width:1.6697;stroke-linecap:round;stroke-linejoin:round;stroke-miterlimit:10;" d="
			M212.737,145.306c0.102-0.828,0.96-1.484,1.786-1.365c0.826,0.119,1.465,0.989,1.33,1.813c-0.079-0.851,0.713-1.674,1.566-1.629
			c0.853,0.046,1.553,0.949,1.383,1.786c-0.025-0.68,0.62-1.308,1.299-1.266c0.68,0.042,1.241,0.745,1.132,1.417"/>
		
			<path style="fill:#E1A946;stroke:#6F1F46;stroke-width:1.6888;stroke-linecap:round;stroke-linejoin:round;stroke-miterlimit:10;" d="
			M184.287,139.099c0.059,0.377,0.099,0.761,0.117,1.151c0.277,5.988-4.464,11.071-10.589,11.355
			c-6.125,0.283-11.315-4.341-11.592-10.328c-0.034-0.73,0.008-1.447,0.117-2.143l-104.72,0.165
			c4.616,45.597,45.002,80.121,92.386,77.928c44.626-2.065,80.06-35.984,84.357-78.207L184.287,139.099z"/>
		<path style="fill:#568C6D;" d="M40.101,108.636c0.021-1.192,0.573-2.304,1.136-3.355c0.59-1.102,1.212-2.205,1.52-3.417
			s0.266-2.57-0.412-3.621c-0.669-1.037-1.9-1.644-3.133-1.691c-1.233-0.047-2.452,0.423-3.437,1.166
			c-1.498,1.13-2.469,2.853-2.984,4.658c-0.515,1.805-0.608,3.701-0.618,5.578c-1.451-1.568-3.539-2.527-5.673-2.608
			c-1.341-0.051-2.752,0.267-3.747,1.167c-0.772,0.699-1.225,1.679-1.579,2.658c-0.63,1.74-1.016,3.627-0.661,5.444
			c0.355,1.816,1.565,3.543,3.323,4.122c1.758,0.579,3.981-0.301,4.546-2.063c0.23-0.717,0.227-1.58,0.799-2.069
			c0.809-0.692,2.037-0.094,2.909,0.517c1.728,1.211,3.494,2.473,5.544,2.974c1.869,0.457,5.657,0.233,5.106-2.476
			C42.241,113.171,40.056,111.215,40.101,108.636z"/>
		<path style="fill:#568C6D;" d="M15.776,111.521c-1.185,0.666-1.896,1.979-2.143,3.316c-0.247,1.337-0.091,2.712,0.092,4.06
			c0.121,0.892,0.269,1.824,0.808,2.546c0.691,0.926,1.884,1.318,3.02,1.53c1.278,0.239,2.625,0.312,3.854-0.113
			s2.315-1.43,2.551-2.708c0.182-0.99-0.155-2.01-0.655-2.883c-0.5-0.873-1.16-1.644-1.708-2.488
			c-0.466-0.718-0.815-1.478-1.132-2.27c-0.184-0.46-0.363-0.985-0.791-1.279C18.68,110.554,16.725,110.989,15.776,111.521z"/>
		<path style="fill:#568C6D;" d="M49.219,128.751c2.006,2.611,4.331,4.967,6.293,7.612c1.172,1.58,0.845-0.981,2.514,0.059
			c1.447,0.902,3.62,1.422,5.324,1.491c2.86,0.115,7.209,0.321,9.583-1.278c-0.412,2.245-1.219,7.865-2.141,9.953
			s-1.554,6.939-3.608,7.935c-1.908,0.925-4.976-1.955-7.087-2.154c-7.123-0.674-13.95-4.1-18.747-9.408
			c-2.827-3.128-4.976-6.878-8.164-9.637c-3.372-2.919-7.72-4.56-10.993-7.589c-0.518-0.479-1.045-1.111-0.915-1.805
			c0.069-0.366,0.314-0.672,0.565-0.947c1.142-1.251,2.563-2.21,3.808-3.357c1.245-1.148,2.354-2.58,2.572-4.26
			c0.159-1.227-0.155-2.564,0.438-3.649c0.595-1.089,1.973-1.561,3.206-1.428c1.234,0.133,2.355,0.756,3.412,1.408
			c2.627,1.621,5.093,3.501,7.354,5.603c0.864,0.803,2.287,1.772,2.48,2.985c0.227,1.421,0.692,2.769,1.319,4.065
			C47.19,125.915,48.16,127.373,49.219,128.751z"/>
		
			<path style="fill:none;stroke:#6F1F46;stroke-width:1.6697;stroke-linecap:round;stroke-linejoin:round;stroke-miterlimit:10;" d="
			M72.507,136.33c0,0-21.082,9.796-29.091-18.634c-0.73-2.591-3.752-5.415-3.193-8.048c0.559-2.633,2.197-4.917,2.942-7.503
			c0.062-0.216,0.115-0.437,0.159-0.661c0.767-3.97-3.751-6.834-7.102-4.57c-1.028,0.694-1.935,1.566-2.656,2.576
			c-1.685,2.361-2.326,5.44-1.723,8.277c-1.554-2.696-5.448-3.522-8.184-2.04s-4.181,4.822-3.845,7.916
			c0.192,1.775,0.958,3.555,2.384,4.63s3.566,1.273,4.982,0.186c1.143-0.878,1.636-2.42,1.527-3.857
			c-0.11-1.437-0.745-2.784-1.512-4.005"/>
		
			<path style="fill:#568C6D;stroke:#6F1F46;stroke-width:1.6697;stroke-linecap:round;stroke-linejoin:round;stroke-miterlimit:10;" d="
			M13.205,119.034c-1.891-0.49-4.061,0.658-4.72,2.497c-0.659,1.839,0.289,4.104,2.061,4.926c2.071,0.96,6.071,0.598,8.347,0.423
			c0,0,2.72,8.052,11.664,6.135c0,0,7.453,35.562,43.015,25.128"/>
		
			<path style="fill:#568C6D;stroke:#6F1F46;stroke-width:1.6697;stroke-linecap:round;stroke-linejoin:round;stroke-miterlimit:10;" d="
			M45.11,127.535c0.595-0.706,1.524-1.139,2.444-1.061c0.919,0.078,1.791,0.7,2.092,1.572c0.302,0.872-0.034,1.943-0.818,2.428
			c1.388-0.761,3.332-0.246,4.161,1.103c0.829,1.349,0.411,3.316-0.896,4.211"/>
		
			<path style="fill:#568C6D;stroke:#6F1F46;stroke-width:1.6697;stroke-linecap:round;stroke-linejoin:round;stroke-miterlimit:10;" d="
			M40.943,149.967c-0.815,0.689-1.133,1.909-0.757,2.908c0.376,0.999,1.418,1.708,2.485,1.689c-0.197,0.841,0.345,1.788,1.17,2.044
			c0.825,0.257,1.808-0.216,2.123-1.02c-0.143,0.861,0.518,1.774,1.381,1.907c0.863,0.133,1.768-0.539,1.89-1.404
			c-0.112,0.766,0.463,1.568,1.225,1.708c0.762,0.14,1.584-0.406,1.751-1.162"/>
		
			<path style="fill:none;stroke:#6F1F46;stroke-width:1.6697;stroke-linecap:round;stroke-linejoin:round;stroke-miterlimit:10;" d="
			M24.653,119.15c0.14,3.123-2.185,4.981-5.773,4.212c-3.176-0.68-5.805-3.673-5.801-6.92c0.003-3.248,3.024-6.306,6.254-5.967"/>
		
			<path style="fill:#568C6D;stroke:#6F1F46;stroke-width:1.6697;stroke-linecap:round;stroke-linejoin:round;stroke-miterlimit:10;" d="
			M38.692,125.735c-1.662,0.25-3.435-0.479-4.439-1.827"/>
		
			<path style="fill:#E1A946;stroke:#6F1F46;stroke-width:1.6798;stroke-linecap:round;stroke-linejoin:round;stroke-miterlimit:10;" d="
			M73.294,135.622c-3.475,0.55-13.768,1.748-20.099-2.089L41.671,155.84c0,0,20.705,13.692,34.444,3.41v0h0
			c4.903-6.945,4.558-16.31-0.842-22.876l-0.006-0.007C74.789,135.786,74.038,135.504,73.294,135.622z"/>
		<circle style="fill:#5A7EAE;stroke:#6F1F46;stroke-width:0.2546;stroke-miterlimit:10;" cx="173.691" cy="178.618" r="13.142"/>
		<path style="fill:#568C6D;stroke:#6F1F46;stroke-width:0.2546;stroke-miterlimit:10;" d="M164.223,187.771
			c-5.132-5.132-5.132-13.454,0-18.586c1.147-1.147,2.516-2.132,4.041-2.684c0.92-0.333,1.961-0.513,2.865-0.136
			c0.903,0.377,1.55,1.473,1.154,2.368c-0.461,1.041-2.038,1.397-2.18,2.526c-0.073,0.581,0.286,1.114,0.552,1.636
			c0.266,0.521,0.427,1.216,0.029,1.646c-0.583,0.629-1.676,0.064-2.474,0.38c-0.826,0.327-0.992,1.429-0.862,2.308
			c0.179,1.201,0.663,2.332,1.032,3.489c0.369,1.157,0.625,2.402,0.333,3.581C168.245,186.191,166.156,188.017,164.223,187.771z"/>
		
			<path style="fill:none;stroke:#6F1F46;stroke-width:0.2546;stroke-linecap:round;stroke-linejoin:round;stroke-miterlimit:10;" d="
			M163.567,173.328c-0.014-0.086,0.013-0.179,0.075-0.24c0.062-0.061,0.16-0.085,0.241-0.052c0.081,0.032,0.137,0.122,0.123,0.208
			c0.031-0.146,0.188-0.253,0.335-0.229c0.147,0.024,0.262,0.175,0.245,0.324"/>
		
			<path style="fill:none;stroke:#6F1F46;stroke-width:0.2546;stroke-linecap:round;stroke-linejoin:round;stroke-miterlimit:10;" d="
			M168.193,170.383c-0.014-0.086,0.013-0.179,0.075-0.24c0.062-0.061,0.16-0.085,0.241-0.052c0.081,0.032,0.137,0.122,0.123,0.208
			c0.031-0.146,0.188-0.253,0.335-0.229c0.147,0.024,0.262,0.175,0.245,0.324"/>
		
			<path style="fill:none;stroke:#6F1F46;stroke-width:0.2546;stroke-linecap:round;stroke-linejoin:round;stroke-miterlimit:10;" d="
			M164.789,183.743c-0.014-0.086,0.013-0.179,0.075-0.24c0.062-0.061,0.16-0.085,0.241-0.052c0.081,0.032,0.137,0.122,0.123,0.208
			c0.031-0.146,0.188-0.253,0.335-0.229c0.147,0.024,0.262,0.175,0.245,0.324"/>
		
			<path style="fill:none;stroke:#6F1F46;stroke-width:0.2546;stroke-linecap:round;stroke-linejoin:round;stroke-miterlimit:10;" d="
			M163.712,178.461c0.09,0.105,0.179,0.209,0.269,0.314"/>
		
			<path style="fill:none;stroke:#6F1F46;stroke-width:0.2546;stroke-linecap:round;stroke-linejoin:round;stroke-miterlimit:10;" d="
			M163.942,178.13c0.09,0.105,0.179,0.209,0.269,0.314"/>
		<g>
			<path style="fill:#FDFBD2;" d="M164.275,187.629c1.981-0.126,3.656-1.69,4.097-3.554c0.494-2.689-1.433-5.112-1.306-7.748
				c0.066-0.693,0.474-1.417,1.172-1.611c-0.323,0.128-0.604,0.353-0.774,0.65c-0.906,1.936,0.552,3.883,0.926,5.795
				C169.457,184.088,167.533,187.674,164.275,187.629L164.275,187.629z"/>
		</g>
		<circle style="fill:#FFFFFF;stroke:#6F1F46;stroke-width:0.2037;stroke-miterlimit:10;" cx="179.217" cy="175.455" r="1.632"/>
		<circle style="fill:#6F1F46;" cx="179.372" cy="175.997" r="1.008"/>
		<circle style="fill:#FFFFFF;" cx="179.433" cy="175.924" r="0.153"/>
		<circle style="fill:#FFFFFF;" cx="179.787" cy="176.414" r="0.237"/>
		<circle style="fill:#FFFFFF;" cx="179.201" cy="176.395" r="0.168"/>
		<path style="fill:#5A7EAE;stroke:#6F1F46;stroke-width:0.2037;stroke-miterlimit:10;" d="M180.847,175.432h-3.265
			c0.007-0.895,0.736-1.619,1.632-1.619C180.111,173.812,180.839,174.536,180.847,175.432z"/>
		<circle style="fill:#FFFFFF;stroke:#6F1F46;stroke-width:0.2037;stroke-miterlimit:10;" cx="176.528" cy="175.455" r="1.632"/>
		<circle style="fill:#6F1F46;" cx="176.598" cy="175.997" r="1.008"/>
		<circle style="fill:#FFFFFF;" cx="176.659" cy="175.924" r="0.153"/>
		<circle style="fill:#FFFFFF;" cx="177.013" cy="176.414" r="0.237"/>
		<circle style="fill:#FFFFFF;" cx="176.426" cy="176.395" r="0.168"/>
		<path style="fill:#5A7EAE;stroke:#6F1F46;stroke-width:0.2037;stroke-miterlimit:10;" d="M178.162,175.432h-3.265
			c0.007-0.895,0.736-1.619,1.632-1.619C177.426,173.812,178.155,174.536,178.162,175.432z"/>
		
			<path style="fill:none;stroke:#6F1F46;stroke-width:0.2546;stroke-linecap:round;stroke-linejoin:round;stroke-miterlimit:10;" d="
			M177.275,177.809c0.121,0.237,0.387,0.392,0.653,0.381c0.266-0.012,0.518-0.189,0.617-0.436"/>
		<path style="fill:#568C6D;stroke:#6F1F46;stroke-width:0.2546;stroke-miterlimit:10;" d="M170.55,184.099
			c-0.152,0.117-0.249,0.277-0.308,0.457c-0.237,0.722,0.219,1.491,0.961,1.656c0.083,0.018,0.166,0.037,0.248,0.056
			c0.435,0.1,0.88,0.229,1.223,0.516c0.343,0.286,0.559,0.768,0.413,1.19c-0.118,0.342-0.453,0.617-0.432,0.978
			c0.023,0.39,0.443,0.618,0.813,0.742c1.227,0.41,4.018,0.989,4.748-0.538c0.292-0.611,0.016-1.341-0.353-1.909
			s-0.841-1.1-0.981-1.763c-0.154-0.729,0.124-1.47,0.353-2.178c0.229-0.709,0.407-1.508,0.076-2.175
			c-0.362-0.729-1.313-1.073-2.085-0.815s-1.313,1.044-1.359,1.856c-0.033,0.581,0.125,1.258-0.28,1.675
			c-0.37,0.38-0.99,0.302-1.505,0.179C171.567,183.902,170.97,183.775,170.55,184.099z"/>
		
			<path style="fill:none;stroke:#6F1F46;stroke-width:0.2546;stroke-linecap:round;stroke-linejoin:round;stroke-miterlimit:10;" d="
			M173.841,185.369c-0.014-0.086,0.013-0.179,0.075-0.24c0.062-0.061,0.16-0.085,0.241-0.052c0.081,0.032,0.137,0.122,0.123,0.208
			c0.031-0.146,0.188-0.253,0.335-0.229c0.147,0.024,0.262,0.175,0.245,0.324"/>
		
			<path style="fill:none;stroke:#6F1F46;stroke-width:0.2546;stroke-linecap:round;stroke-linejoin:round;stroke-miterlimit:10;" d="
			M175.589,188.437c0.09,0.105,0.179,0.209,0.269,0.314"/>
		
			<path style="fill:none;stroke:#6F1F46;stroke-width:0.2546;stroke-linecap:round;stroke-linejoin:round;stroke-miterlimit:10;" d="
			M175.818,188.106c0.09,0.105,0.179,0.209,0.269,0.314"/>
		<g>
			<path style="fill:#FDFBD2;" d="M173.979,165.671c11.425-0.117,16.983,14.412,8.801,22.209c-2.409,2.389-5.783,3.767-9.158,3.705
				c6.831,0.015,12.928-5.97,12.823-12.824C186.691,171.953,180.872,165.643,173.979,165.671L173.979,165.671z"/>
		</g>
		<path style="fill:#568C6D;stroke:#6F1F46;stroke-width:0.2546;stroke-miterlimit:10;" d="M182.588,187.471"/>
		<g>
			<path style="fill:none;" d="M169.8,172.053"/>
		</g>
		<path style="fill:#568C6D;stroke:#6F1F46;stroke-width:0.2546;stroke-miterlimit:10;" d="M184.578,186.04
			c1.506-0.973,2.193-2.684,2.395-3.469c0.164-0.637,0.369-1.937,0.415-2.593c0.336-4.774-1.094-4.961-1.094-4.961
			c-0.164,2.134-2.331,2.015-3.351,1.838c-0.562-0.097-1.115,0.226-1.304,0.765c-0.293,0.833-0.029,1.98,0.28,2.868
			c0.49,1.409,0.344,2.969-0.441,4.238C180.815,185.799,180.909,188.41,184.578,186.04z"/>
		<g>
			<path style="fill:#FDFBD2;" d="M186.439,175.213c0.741,0.737,0.858,1.886,0.917,2.883c0.01,2.924-0.436,6.615-3.298,8.127
				c0,0-0.001-0.003-0.001-0.003c2.716-1.662,3.033-5.226,3.058-8.118C187.072,177.112,187.023,176.054,186.439,175.213
				L186.439,175.213z"/>
		</g>
		<g>
			<path style="fill:#FDFBD2;" d="M178.066,189.164c0.44-1.518-1.519-2.307-1.586-3.795c-0.181-1.47,1.14-2.703,0.738-4.126
				c0,0,0.007-0.003,0.007-0.003c0.593,1.355-0.685,2.743-0.497,4.106C176.783,186.675,178.753,187.741,178.066,189.164
				L178.066,189.164z"/>
		</g>
		
			<path style="fill:none;stroke:#6F1F46;stroke-width:0.2546;stroke-linecap:round;stroke-linejoin:round;stroke-miterlimit:10;" d="
			M183.696,184.3c-0.014-0.086,0.013-0.179,0.075-0.24c0.062-0.061,0.16-0.085,0.241-0.052c0.081,0.032,0.137,0.122,0.123,0.208
			c0.031-0.146,0.188-0.253,0.335-0.229c0.147,0.024,0.262,0.175,0.245,0.324"/>
		
			<path style="fill:none;stroke:#6F1F46;stroke-width:0.2546;stroke-linecap:round;stroke-linejoin:round;stroke-miterlimit:10;" d="
			M183.702,179.972c0.016-0.126,0.146-0.226,0.272-0.208c0.126,0.018,0.223,0.151,0.203,0.276c-0.012-0.13,0.109-0.255,0.239-0.248
			c0.13,0.007,0.237,0.145,0.211,0.272c-0.004-0.104,0.094-0.199,0.198-0.193c0.104,0.006,0.189,0.114,0.173,0.216"/>
		
			<ellipse transform="matrix(0.9706 -0.2408 0.2408 0.9706 -7.9299 30.1492)" style="fill:#E1A946;stroke:#6F1F46;stroke-width:1.6888;stroke-linecap:round;stroke-linejoin:round;stroke-miterlimit:10;" cx="119.414" cy="47.526" rx="25.996" ry="11.007"/>
		
			<path style="fill:#E1A946;stroke:#6F1F46;stroke-width:1.6888;stroke-linecap:round;stroke-linejoin:round;stroke-miterlimit:10;" d="
			M128.897,24.296l-28.725,7.126l4.719,18.471c0.833,3.359,7.939,4.486,15.871,2.519s13.687-6.285,12.854-9.644L128.897,24.296z"/>
		
			<ellipse transform="matrix(0.9706 -0.2408 0.2408 0.9706 -2.9169 28.2246)" style="fill:#E1A946;stroke:#6F1F46;stroke-width:1.6888;stroke-linecap:round;stroke-linejoin:round;stroke-miterlimit:10;" cx="114.044" cy="26.049" rx="14.798" ry="6.266"/>
	</g>
</g>
</svg>
