<?xml version="1.0" encoding="iso-8859-1"?>
<!-- Generator: Adobe Illustrator 27.8.1, SVG Export Plug-In . SVG Version: 6.00 Build 0)  -->
<svg version="1.1" xmlns="http://www.w3.org/2000/svg" xmlns:xlink="http://www.w3.org/1999/xlink" x="0px" y="0px"
	 viewBox="0 0 300 300" style="enable-background:new 0 0 300 300;" xml:space="preserve">
<g id="Laag_1">
</g>
<g id="island_small">
</g>
<g id="smile">
</g>
<g id="Eyes">
</g>
<g id="big_island">
</g>
<g id="island_right">
	<g>
		<circle style="fill:#5A7EAE;stroke:#6F1F46;stroke-width:2.6382;stroke-miterlimit:10;" cx="150.634" cy="150.184" r="136.184"/>
		<g>
			<path style="fill:#FDFBD2;" d="M147.137,16.204c-72.35,0.515-130.805,64.06-129.198,135.65
				c-0.474,71.339,61.701,132.72,132.897,132.88c-72.78,1.594-135.487-60.1-135.528-132.853
				C13.753,79.516,73.691,14.509,147.137,16.204L147.137,16.204z"/>
		</g>
		<path style="fill:#568C6D;stroke:#6F1F46;stroke-width:3.5358;stroke-miterlimit:10;" d="M161.01,157.185"/>
		<g>
			<path style="fill:none;" d="M190.434,82.335"/>
		</g>
		<path style="fill:#568C6D;stroke:#6F1F46;stroke-width:2.6382;stroke-miterlimit:10;" d="M182.661,207.159
			c1.58,1.213,2.576,2.865,3.192,4.74c2.459,7.484-2.273,15.446-9.962,17.163c-0.858,0.192-1.715,0.38-2.568,0.575
			c-4.511,1.034-9.12,2.376-12.672,5.343c-3.552,2.967-5.79,7.956-4.278,12.331c1.224,3.541,4.697,6.398,4.475,10.138
			c-0.24,4.041-4.586,6.409-8.425,7.692c-12.717,4.252-41.638,10.252-49.196-5.575c-3.023-6.331-0.162-13.898,3.656-19.785
			c3.818-5.886,8.712-11.401,10.16-18.266c1.593-7.551-1.286-15.228-3.66-22.571c-2.374-7.343-4.218-15.628-0.784-22.54
			c3.754-7.556,13.608-11.122,21.609-8.445c8.001,2.677,13.601,10.813,14.085,19.236c0.345,6.018-1.299,13.035,2.906,17.354
			c3.829,3.933,10.257,3.131,15.594,1.85C172.131,205.119,178.314,203.808,182.661,207.159z"/>
		<g>
			<path style="fill:#FDFBD2;" d="M104.784,259.646c-7.392-13.857,13.202-26.042,13.844-39.565
				c0.857-10.932-4.862-21.024-6.643-31.668c-0.562-3.642-0.416-7.651,1.51-10.879c-1.163,3.346-1.196,7.164-0.259,10.639
				c3.146,12.218,11.31,24.845,6.74,37.817c-1.948,5.306-5.73,9.741-8.971,14.14C106.966,245.673,101.846,252.492,104.784,259.646
				L104.784,259.646z"/>
		</g>
		
			<path style="fill:none;stroke:#6F1F46;stroke-width:2.6382;stroke-linecap:round;stroke-linejoin:round;stroke-miterlimit:10;" d="
			M148.564,220.327c0.142-0.891-0.131-1.855-0.777-2.486c-0.645-0.63-1.662-0.877-2.5-0.543c-0.838,0.334-1.416,1.267-1.273,2.157
			c-0.324-1.513-1.948-2.622-3.475-2.373c-1.528,0.249-2.715,1.815-2.542,3.354"/>
		
			<path style="fill:none;stroke:#6F1F46;stroke-width:2.6382;stroke-linecap:round;stroke-linejoin:round;stroke-miterlimit:10;" d="
			M130.448,252.116c-0.929,1.084-1.859,2.169-2.788,3.253"/>
		
			<path style="fill:none;stroke:#6F1F46;stroke-width:2.6382;stroke-linecap:round;stroke-linejoin:round;stroke-miterlimit:10;" d="
			M128.074,248.687c-0.929,1.084-1.859,2.169-2.788,3.253"/>
		<circle style="fill:#6F1F46;" cx="105.825" cy="150.606" r="9.264"/>
		<circle style="fill:#FFFFFF;stroke:#6F1F46;stroke-width:2.1105;stroke-miterlimit:10;" cx="92.86" cy="117.588" r="16.916"/>
		<circle style="fill:#6F1F46;" cx="91.25" cy="123.209" r="10.448"/>
		<circle style="fill:#FFFFFF;" cx="90.614" cy="122.455" r="1.58"/>
		<circle style="fill:#FFFFFF;" cx="86.948" cy="127.533" r="2.458"/>
		<circle style="fill:#FFFFFF;" cx="93.025" cy="127.332" r="1.741"/>
		<path style="fill:#5A7EAE;stroke:#6F1F46;stroke-width:2.1105;stroke-miterlimit:10;" d="M75.971,117.351h33.834
			c-0.074-9.278-7.623-16.78-16.915-16.78C83.593,100.571,76.045,108.074,75.971,117.351z"/>
		<circle style="fill:#FFFFFF;stroke:#6F1F46;stroke-width:2.1105;stroke-miterlimit:10;" cx="120.722" cy="117.588" r="16.916"/>
		<circle style="fill:#6F1F46;" cx="119.997" cy="123.209" r="10.448"/>
		<circle style="fill:#FFFFFF;" cx="119.361" cy="122.455" r="1.58"/>
		<circle style="fill:#FFFFFF;" cx="115.695" cy="127.533" r="2.458"/>
		<circle style="fill:#FFFFFF;" cx="121.772" cy="127.332" r="1.741"/>
		<path style="fill:#5A7EAE;stroke:#6F1F46;stroke-width:2.1105;stroke-miterlimit:10;" d="M103.79,117.351h33.834
			c-0.074-9.278-7.623-16.78-16.915-16.78C111.413,100.571,103.865,108.074,103.79,117.351z"/>
		<path style="fill:#568C6D;stroke:#6F1F46;stroke-width:2.6382;stroke-miterlimit:10;" d="M248.224,245.21
			c53.183-53.183,53.183-139.41,0-192.593c-11.883-11.883-26.067-22.091-41.869-27.81c-9.537-3.452-20.324-5.317-29.685-1.413
			s-16.066,15.266-11.96,24.541c4.773,10.782,21.115,14.474,22.593,26.173c0.761,6.019-2.963,11.548-5.722,16.951
			c-2.759,5.404-4.425,12.604-0.301,17.054c6.044,6.521,17.368,0.664,25.635,3.938c8.558,3.39,10.284,14.811,8.929,23.916
			c-1.853,12.449-6.869,24.165-10.692,36.157c-3.823,11.992-6.472,24.892-3.45,37.11
			C206.551,228.836,228.193,247.762,248.224,245.21z"/>
		
			<path style="fill:none;stroke:#6F1F46;stroke-width:2.6382;stroke-linecap:round;stroke-linejoin:round;stroke-miterlimit:10;" d="
			M255.022,95.552c0.142-0.891-0.131-1.855-0.777-2.486c-0.645-0.63-1.662-0.877-2.5-0.543c-0.838,0.334-1.416,1.267-1.273,2.157
			c-0.324-1.513-1.948-2.622-3.475-2.373c-1.528,0.249-2.715,1.815-2.542,3.354"/>
		
			<path style="fill:none;stroke:#6F1F46;stroke-width:2.6382;stroke-linecap:round;stroke-linejoin:round;stroke-miterlimit:10;" d="
			M207.086,65.031c0.142-0.891-0.131-1.855-0.777-2.486c-0.645-0.63-1.662-0.877-2.5-0.543s-1.416,1.267-1.273,2.157
			c-0.324-1.513-1.948-2.622-3.475-2.373c-1.528,0.249-2.715,1.815-2.542,3.354"/>
		
			<path style="fill:none;stroke:#6F1F46;stroke-width:2.6382;stroke-linecap:round;stroke-linejoin:round;stroke-miterlimit:10;" d="
			M242.359,203.469c0.142-0.891-0.131-1.855-0.777-2.486c-0.645-0.63-1.662-0.877-2.5-0.543c-0.838,0.334-1.416,1.267-1.273,2.157
			c-0.324-1.513-1.948-2.622-3.475-2.373c-1.528,0.249-2.715,1.815-2.542,3.354"/>
		
			<path style="fill:none;stroke:#6F1F46;stroke-width:2.6382;stroke-linecap:round;stroke-linejoin:round;stroke-miterlimit:10;" d="
			M253.516,148.738c-0.929,1.084-1.859,2.169-2.788,3.253"/>
		
			<path style="fill:none;stroke:#6F1F46;stroke-width:2.6382;stroke-linecap:round;stroke-linejoin:round;stroke-miterlimit:10;" d="
			M251.142,145.308c-0.929,1.084-1.859,2.169-2.788,3.253"/>
		<g>
			<path style="fill:#FDFBD2;" d="M247.681,243.922c-21.032,0.229-39.724-16.428-44.822-36.453
				c-3.666-18.178,4.868-41.916,11.283-58.949c4.14-12.398,7.494-32.348-7.51-38.583c1.669,0.459,3.375,1.36,4.842,2.403
				c10.444,8.229,8.046,24.609,4.855,35.928c-0.346,1.362-1.787,5.293-2.427,7.236c-4.968,15.23-11.585,35.512-8.595,51.407
				c3.648,14.442,13.951,27.301,27.748,33.227c4.604,2.01,9.574,3.198,14.632,3.604L247.681,243.922L247.681,243.922z"/>
		</g>
		<path style="fill:#568C6D;stroke:#6F1F46;stroke-width:2.6382;stroke-miterlimit:10;" d="M37.308,227.277
			c-15.608-10.083-22.724-27.809-24.816-35.951c-1.697-6.603-3.826-20.071-4.305-26.872c-3.486-49.47,11.334-51.403,11.334-51.403
			c1.701,22.114,24.156,20.881,34.726,19.048c5.825-1.01,11.55,2.345,13.511,7.922c3.034,8.629,0.299,20.52-2.901,29.716
			c-5.082,14.603-3.562,30.762,4.565,43.916C76.296,224.782,75.327,251.839,37.308,227.277z"/>
		<g>
			<path style="fill:#FDFBD2;" d="M18.023,115.091c-3.262,4.099-4.514,9.391-5.556,14.422c-0.95,5.104-1.286,10.308-1.422,15.512
				c0.108,24.378,2.287,50.836,17.075,71.136c3.95,5.233,8.891,9.63,14.577,12.978c-19.672-9.429-28.627-32.02-31.984-52.444
				C8.16,160.072,4.949,127.538,18.023,115.091L18.023,115.091z"/>
		</g>
		
			<path style="fill:none;stroke:#6F1F46;stroke-width:2.6382;stroke-linecap:round;stroke-linejoin:round;stroke-miterlimit:10;" d="
			M46.446,209.242c0.142-0.891-0.131-1.855-0.777-2.486c-0.645-0.63-1.662-0.877-2.5-0.543c-0.838,0.334-1.416,1.266-1.273,2.157
			c-0.324-1.513-1.948-2.622-3.475-2.373c-1.528,0.249-2.715,1.815-2.542,3.354"/>
		
			<path style="fill:none;stroke:#6F1F46;stroke-width:2.6382;stroke-linecap:round;stroke-linejoin:round;stroke-miterlimit:10;" d="
			M46.378,164.396c-0.161-1.309-1.516-2.345-2.821-2.157c-1.305,0.187-2.314,1.563-2.101,2.864c0.125-1.344-1.126-2.645-2.474-2.573
			s-2.453,1.499-2.186,2.822c0.039-1.075-0.979-2.067-2.053-2s-1.96,1.177-1.788,2.239"/>
	</g>
</g>
</svg>
