<?xml version="1.0" encoding="utf-8"?>
<!-- Generator: Adobe Illustrator 27.8.1, SVG Export Plug-In . SVG Version: 6.00 Build 0)  -->
<svg version="1.1" id="Laag_1" xmlns="http://www.w3.org/2000/svg" xmlns:xlink="http://www.w3.org/1999/xlink" x="0px" y="0px"
	 viewBox="0 0 80 60" style="enable-background:new 0 0 80 60;" xml:space="preserve">
<style type="text/css">
	.st0{fill:none;stroke:#FDFBD2;stroke-width:0.1197;stroke-miterlimit:10;}
	.st1{fill:#E1A946;stroke:#6F1F46;stroke-width:1.0082;stroke-linecap:round;stroke-linejoin:round;stroke-miterlimit:10;}
	.st2{fill:#5A7EAE;stroke:#6F1F46;stroke-width:0.1994;stroke-miterlimit:10;}
	.st3{fill:#FDFBD2;}
	.st4{fill:#568C6D;stroke:#6F1F46;stroke-width:0.1994;stroke-miterlimit:10;}
	.st5{fill:none;}
	.st6{fill:none;stroke:#6F1F46;stroke-width:0.1994;stroke-linecap:round;stroke-linejoin:round;stroke-miterlimit:10;}
	.st7{fill:#FFFFFF;stroke:#6F1F46;stroke-width:0.1596;stroke-miterlimit:10;}
	.st8{fill:#6F1F46;}
	.st9{fill:#FFFFFF;}
	.st10{fill:#5A7EAE;stroke:#6F1F46;stroke-width:0.1596;stroke-miterlimit:10;}
</style>
<g id="Laag_1_00000063595434959522879680000009690290141891497345_">
</g>
<g id="left_arm">
	<g>
		<path class="st0" d="M39.2,38.1"/>
		<path class="st0" d="M43.7,38.1"/>
		<path class="st1" d="M55.9,6.4h-9.3c0,3.9-3.2,7.1-7.1,7.1s-7.1-3.2-7.1-7.1h-8.3l-16,5.6L11.6,25l12.6-4.5v33.1h31.7V20.5
			L68.4,25l3.4-12.9L55.9,6.4z"/>
		<circle class="st2" cx="40.4" cy="28.9" r="10.3"/>
		<g>
			<path class="st3" d="M40.6,18.8c5.5-0.2,10.1,4.9,10,10.3c0,5.4-4.8,10.2-10.2,10c5.3,0,10.1-4.7,10-10
				C50.6,23.7,46,18.8,40.6,18.8L40.6,18.8z"/>
		</g>
		<path class="st4" d="M47.4,35.9"/>
		<g>
			<path class="st5" d="M37.4,23.8"/>
		</g>
		<path class="st4" d="M37.9,33.2c-0.1,0.1-0.2,0.2-0.2,0.4c-0.2,0.6,0.2,1.2,0.8,1.3c0.1,0,0.1,0,0.2,0c0.3,0.1,0.7,0.2,1,0.4
			s0.4,0.6,0.3,0.9c-0.1,0.3-0.4,0.5-0.3,0.8c0,0.3,0.3,0.5,0.6,0.6c1,0.3,3.1,0.8,3.7-0.4c0.2-0.5,0-1.1-0.3-1.5
			c-0.3-0.4-0.7-0.9-0.8-1.4c-0.1-0.6,0.1-1.2,0.3-1.7c0.2-0.6,0.3-1.2,0.1-1.7c-0.3-0.6-1-0.8-1.6-0.6s-1,0.8-1.1,1.5
			c0,0.5,0.1,1-0.2,1.3c-0.3,0.3-0.8,0.2-1.2,0.1S38.3,33,37.9,33.2z"/>
		<g>
			<path class="st3" d="M43.8,37.2c0.3-1.2-1.2-1.8-1.2-3c-0.1-1.2,0.9-2.1,0.6-3.2l0,0c0.5,1.1-0.5,2.1-0.4,3.2
				C42.8,35.2,44.4,36.1,43.8,37.2L43.8,37.2z"/>
		</g>
		<path class="st6" d="M40.5,34.2c0-0.1,0-0.1,0.1-0.2s0.1-0.1,0.2,0s0.1,0.1,0.1,0.2c0-0.1,0.1-0.2,0.3-0.2c0.1,0,0.2,0.1,0.2,0.3"
			/>
		<path class="st6" d="M41.9,36.6c0.1,0.1,0.1,0.2,0.2,0.2"/>
		<path class="st6" d="M42.1,36.3c0.1,0.1,0.1,0.2,0.2,0.2"/>
		<path class="st6" d="M43.2,28.3c0.1,0.2,0.3,0.3,0.5,0.3s0.4-0.1,0.5-0.3"/>
		<circle class="st7" cx="44.7" cy="26.4" r="1.3"/>
		<circle class="st8" cx="44.9" cy="26.9" r="0.8"/>
		<circle class="st9" cx="44.9" cy="26.8" r="0.1"/>
		<circle class="st9" cx="45.2" cy="27.2" r="0.2"/>
		<circle class="st9" cx="44.7" cy="27.2" r="0.1"/>
		<path class="st10" d="M46,26.4h-2.6c0-0.7,0.6-1.3,1.3-1.3C45.4,25.2,46,25.7,46,26.4z"/>
		<circle class="st7" cx="42.6" cy="26.4" r="1.3"/>
		<circle class="st8" cx="42.7" cy="26.9" r="0.8"/>
		<circle class="st9" cx="42.7" cy="26.8" r="0.1"/>
		<circle class="st9" cx="43" cy="27.2" r="0.2"/>
		<circle class="st9" cx="42.5" cy="27.2" r="0.1"/>
		<path class="st10" d="M43.9,26.4h-2.6c0-0.7,0.6-1.3,1.3-1.3C43.3,25.2,43.9,25.7,43.9,26.4z"/>
		<path class="st4" d="M33,36.1c-4-4-4-10.5,0-14.6c0.9-0.9,2-1.7,3.2-2.1c0.7-0.3,1.5-0.4,2.2-0.1s1.2,1.2,0.9,1.9
			c-0.4,0.8-1.6,1.1-1.7,2c-0.1,0.5,0.2,0.9,0.4,1.3c0.2,0.4,0.3,1,0,1.3c-0.5,0.5-1.3,0-1.9,0.3c-0.6,0.3-0.8,1.1-0.7,1.8
			c0.1,0.9,0.5,1.8,0.8,2.7c0.3,0.9,0.5,1.9,0.3,2.8C36.1,34.8,34.5,36.3,33,36.1z"/>
		<path class="st6" d="M32.5,24.8c0-0.1,0-0.1,0.1-0.2s0.1-0.1,0.2,0s0.1,0.1,0.1,0.2c0-0.1,0.1-0.2,0.3-0.2c0.1,0,0.2,0.1,0.2,0.3"
			/>
		<path class="st6" d="M36.1,22.5c0-0.1,0-0.1,0.1-0.2s0.1-0.1,0.2,0s0.1,0.1,0.1,0.2c0-0.1,0.1-0.2,0.3-0.2c0.1,0,0.2,0.1,0.2,0.3"
			/>
		<path class="st6" d="M33.4,32.9c0-0.1,0-0.1,0.1-0.2s0.1-0.1,0.2,0s0.1,0.1,0.1,0.2c0-0.1,0.1-0.2,0.3-0.2c0.1,0,0.2,0.1,0.2,0.3"
			/>
		<path class="st6" d="M32.6,28.8c0.1,0.1,0.1,0.2,0.2,0.2"/>
		<path class="st6" d="M32.8,28.5c0.1,0.1,0.1,0.2,0.2,0.2"/>
		<g>
			<path class="st3" d="M33,36c1.6-0.1,2.8-1.3,3.2-2.8c0.4-2.1-1.1-4-1-6.1c0-0.5,0.4-1.1,0.9-1.3c-0.5,0.2-0.8,0.7-0.8,1.3
				c0,2.1,1.6,4,1.1,6.1C36,34.7,34.6,36,33,36L33,36z"/>
		</g>
		<path class="st4" d="M48.9,34.7c1.2-0.8,1.7-2.1,1.9-2.7c0.1-0.5,0.3-1.5,0.3-2c0.3-3.7-0.9-3.9-0.9-3.9c-0.1,1.7-1.8,1.6-2.6,1.4
			c-0.4-0.1-0.9,0.2-1,0.6c-0.2,0.7,0,1.6,0.2,2.2c0.4,1.1,0.3,2.3-0.3,3.3C46,34.5,46.1,36.6,48.9,34.7z"/>
		<g>
			<path class="st3" d="M50.4,26.2c1.1,1.3,0.7,3.1,0.5,4.7c-0.3,1.5-0.9,3.2-2.4,4l0,0c2.1-1.3,2.4-4.1,2.4-6.4
				C50.9,27.7,50.9,26.9,50.4,26.2L50.4,26.2z"/>
		</g>
		<path class="st6" d="M48.2,33.4c0-0.1,0-0.1,0.1-0.2s0.1-0.1,0.2,0s0.1,0.1,0.1,0.2c0-0.1,0.1-0.2,0.3-0.2c0.1,0,0.2,0.1,0.2,0.3"
			/>
		<path class="st6" d="M48.2,30c0-0.1,0.1-0.2,0.2-0.2c0.1,0,0.2,0.1,0.2,0.2c0-0.1,0.1-0.2,0.2-0.2S49,29.9,49,30
			c0-0.1,0.1-0.2,0.2-0.2c0.1,0,0.1,0.1,0.1,0.2"/>
	</g>
</g>
</svg>
